<svg width="19" height="18" viewBox="0 0 19 18" fill="none" xmlns="http://www.w3.org/2000/svg">
<path d="M16.688 0H2.90674C1.74363 0 0.797363 0.946266 0.797363 2.10938V15.8906C0.797363 17.0537 1.74363 18 2.90674 18H16.688C17.8511 18 18.7974 17.0537 18.7974 15.8906V2.10938C18.7974 0.946266 17.8511 0 16.688 0ZM17.3911 15.8906C17.3911 16.2783 17.0757 16.5938 16.688 16.5938H12.6802V10.8633H14.8525L15.2114 8.68359H12.6802V7.17188C12.6802 6.5751 13.1381 6.11719 13.7349 6.11719H15.1763V3.9375H13.7349C11.9446 3.9375 10.5013 5.3877 10.5013 7.17799V8.68359H8.39111V10.8633H10.5013V16.5938H2.90674C2.51904 16.5938 2.20361 16.2783 2.20361 15.8906V2.10938C2.20361 1.72167 2.51904 1.40625 2.90674 1.40625H16.688C17.0757 1.40625 17.3911 1.72167 17.3911 2.10938V15.8906Z" fill="white"/>
</svg>
