<svg width="18" height="18" viewBox="0 0 18 18" fill="none" xmlns="http://www.w3.org/2000/svg">
<path d="M8.99887 0.187317C4.02975 0.187317 0 4.23282 0 9.22332C0 13.2148 2.5785 16.6011 6.156 17.7969C6.606 17.8802 6.77025 17.6012 6.77025 17.3616C6.77025 17.1467 6.76237 16.5786 6.75787 15.8248C4.25475 16.3704 3.726 14.6132 3.726 14.6132C3.31763 13.5692 2.727 13.2913 2.727 13.2913C1.90913 12.7311 2.78775 12.7423 2.78775 12.7423C3.69112 12.8064 4.16587 13.6738 4.16587 13.6738C4.96913 15.0542 6.273 14.6559 6.786 14.4242C6.867 13.8403 7.09987 13.4421 7.3575 13.2159C5.3595 12.9876 3.258 12.2124 3.258 8.75082C3.258 7.76419 3.609 6.95757 4.185 6.32532C4.09163 6.09694 3.78338 5.17782 4.27275 3.93469C4.27275 3.93469 5.02875 3.69169 6.74775 4.86057C7.4655 4.66032 8.235 4.56019 9.00113 4.55682C9.765 4.56132 10.5356 4.66032 11.2545 4.86169C12.9724 3.69282 13.7272 3.93582 13.7272 3.93582C14.2177 5.18007 13.9095 6.09807 13.8172 6.32644C14.3944 6.95869 14.742 7.76532 14.742 8.75194C14.742 12.2226 12.6382 12.9864 10.6335 13.2103C10.9564 13.4893 11.2444 14.0406 11.2444 14.8832C11.2444 16.0914 11.2331 17.0657 11.2331 17.3616C11.2331 17.6034 11.3951 17.8847 11.8519 17.7958C15.4237 16.5988 18 13.2137 18 9.22332C18 4.23282 13.9703 0.187317 8.99887 0.187317Z" fill="black"/>
</svg>
