<svg width="330" height="220" viewBox="0 0 330 220" fill="none" xmlns="http://www.w3.org/2000/svg">
<path d="M40.3194 193.793C40.3194 201.029 36.0266 203.556 30.7316 203.556C30.6083 203.556 30.4857 203.555 30.3637 203.551C30.1185 203.546 29.8753 203.535 29.6354 203.518C24.8561 203.179 21.1431 200.522 21.1431 193.793C21.1431 186.829 30.0219 178.041 30.6916 177.389L30.6929 177.388C30.7182 177.363 30.7316 177.35 30.7316 177.35C30.7316 177.35 40.3194 186.556 40.3194 193.793Z" fill="#3F3D56"/>
<path d="M30.3817 202.449L33.8889 197.538L30.3731 202.987L30.3638 203.551C30.1185 203.546 29.8753 203.535 29.6354 203.518L30.0132 196.278L30.0106 196.222L30.0172 196.211L30.0525 195.527L26.5281 190.064L30.0632 195.015L30.0719 195.159L30.3577 189.689L27.3404 184.045L30.3944 188.728L30.6916 177.389L30.693 177.35V177.388L30.6436 186.33L33.647 182.785L30.631 187.1L30.5517 191.998L33.3565 187.298L30.5397 192.719L30.4957 195.442L34.5673 188.899L30.4804 196.392L30.3817 202.449Z" fill="#F2F2F2"/>
<path d="M162.137 151.949C159.575 142.63 145.351 135.762 134.253 133.989V129.513C134.458 129.436 134.662 129.358 134.865 129.276C134.806 128.382 134.627 127.499 134.332 126.653C139.072 124.722 143.166 121.477 146.133 117.299C149.257 114.023 151.611 110.089 153.023 105.785C154.435 101.481 154.869 96.9155 154.295 92.4215C153.721 87.9275 152.152 83.6188 149.703 79.8103C147.254 76.0018 143.987 72.7897 140.141 70.4086C141.196 69.7421 142.015 68.7604 142.483 67.6022C142.952 66.4439 143.046 65.1675 142.751 63.953C142.457 62.7385 141.79 61.6472 140.844 60.833C139.898 60.0189 138.72 59.523 137.478 59.4152C138.492 57.0149 138.674 54.343 137.994 51.827C137.314 49.311 135.811 47.0963 133.726 45.5374C131.642 43.9784 129.095 43.1652 126.495 43.228C123.895 43.2907 121.39 44.2257 119.383 45.8834C121.154 44.9392 123.138 44.4704 125.144 44.5227C127.149 44.5751 129.106 45.1467 130.826 46.182C132.545 47.2173 133.968 48.681 134.955 50.4307C135.943 52.1804 136.461 54.1565 136.461 56.1666C136.461 56.2689 136.455 56.3696 136.452 56.4712C136.401 54.7852 135.986 53.1303 135.234 51.6211C134.482 50.1119 133.412 48.7843 132.098 47.7303C130.784 46.6762 129.257 45.9208 127.623 45.5162C125.989 45.1117 124.287 45.0677 122.634 45.3873C120.981 45.7069 119.418 46.3825 118.051 47.3673C116.685 48.3521 115.548 49.6227 114.72 51.0911C113.891 52.5595 113.391 54.1906 113.254 55.8718C113.116 57.553 113.345 59.244 113.924 60.8279C113.036 61.0202 112.206 61.4183 111.499 61.9904C110.793 62.5625 110.23 63.2925 109.856 64.1219C109.482 64.9513 109.307 65.857 109.346 66.7664C109.384 67.6757 109.635 68.5634 110.077 69.3582C105.872 71.5727 102.244 74.7456 99.485 78.6216C96.7262 82.4976 94.9139 86.9685 94.1939 91.6745C93.4739 96.3805 93.8663 101.19 95.3394 105.716C96.8126 110.243 99.3255 114.359 102.676 117.735C105.499 121.546 109.275 124.545 113.623 126.428V133.889C102.406 135.495 87.6361 142.491 85.0553 152.039C82.8062 160.36 80.4054 169.498 79.2109 174.863C89.4496 182.073 110.934 186.306 124.398 186.306C137.19 186.306 158.099 182.485 168.036 175.92C166.96 170.025 164.484 160.486 162.137 151.949ZM141.627 65.8732C141.627 65.9792 141.622 66.0842 141.617 66.1888C141.541 64.873 141.023 63.6217 140.147 62.6392C139.27 61.6567 138.087 61.0011 136.791 60.7796C136.903 60.5887 137.01 60.3944 137.112 60.1968C138.395 60.4913 139.54 61.2131 140.36 62.2442C141.18 63.2753 141.626 64.5547 141.627 65.8732Z" fill="url(#paint0_linear)"/>
<path d="M124.376 184.268C136.804 184.268 157.117 180.556 166.771 174.178C165.726 168.451 163.32 159.184 161.04 150.89C158.136 140.327 139.809 133.004 128.876 133.004H118.341C107.374 133.004 89.0212 140.37 86.1539 150.977C83.9689 159.061 81.6366 167.939 80.4761 173.151C90.4231 180.156 111.295 184.268 124.376 184.268Z" fill="url(#paint1_linear)"/>
<path d="M124.176 126.361C140.459 126.361 153.66 113.132 153.66 96.8133C153.66 80.4947 140.459 67.2658 124.176 67.2658C107.892 67.2658 94.6914 80.4947 94.6914 96.8133C94.6914 113.132 107.892 126.361 124.176 126.361Z" fill="#F55F44"/>
<path d="M116.215 117.352H131.642C132.254 117.352 132.841 117.595 133.274 118.029C133.707 118.463 133.95 119.051 133.95 119.665V135.472C133.95 136.719 133.705 137.954 133.228 139.106C132.752 140.258 132.054 141.305 131.174 142.187C130.294 143.069 129.249 143.769 128.099 144.246C126.949 144.723 125.717 144.969 124.473 144.969H123.384C122.14 144.969 120.907 144.723 119.758 144.246C118.608 143.769 117.563 143.069 116.683 142.187C115.803 141.305 115.105 140.258 114.629 139.106C114.152 137.954 113.907 136.719 113.907 135.472V119.665C113.907 119.361 113.967 119.06 114.083 118.779C114.199 118.499 114.369 118.244 114.583 118.029C114.798 117.814 115.052 117.644 115.332 117.528C115.612 117.411 115.912 117.352 116.215 117.352Z" fill="#FDA57D"/>
<path opacity="0.05" d="M124.855 130.734C128.174 130.736 131.463 130.101 134.545 128.863C134.387 126.424 133.309 124.137 131.53 122.466C129.751 120.794 127.404 119.863 124.966 119.862H124.144C121.746 119.863 119.435 120.762 117.665 122.383C115.895 124.004 114.794 126.23 114.578 128.624C117.825 130.02 121.321 130.738 124.855 130.734Z" fill="black"/>
<path d="M124.228 128.223C138.634 128.223 150.313 116.52 150.313 102.083C150.313 87.6459 138.634 75.9424 124.228 75.9424C109.822 75.9424 98.1436 87.6459 98.1436 102.083C98.1436 116.52 109.822 128.223 124.228 128.223Z" fill="#FDA57D"/>
<path d="M115.393 73.5525C118.512 73.5525 121.039 71.0193 121.039 67.8945C121.039 64.7696 118.512 62.2365 115.393 62.2365C112.275 62.2365 109.748 64.7696 109.748 67.8945C109.748 71.0193 112.275 73.5525 115.393 73.5525Z" fill="#F55F44"/>
<path d="M135.468 73.5525C138.586 73.5525 141.114 71.0193 141.114 67.8945C141.114 64.7696 138.586 62.2365 135.468 62.2365C132.35 62.2365 129.822 64.7696 129.822 67.8945C129.822 71.0193 132.35 73.5525 135.468 73.5525Z" fill="#F55F44"/>
<path d="M124.803 69.7805C131.039 69.7805 136.095 64.7141 136.095 58.4644C136.095 52.2147 131.039 47.1484 124.803 47.1484C118.567 47.1484 113.511 52.2147 113.511 58.4644C113.511 64.7141 118.567 69.7805 124.803 69.7805Z" fill="#F55F44"/>
<path d="M136.723 60.9791C135.6 60.9774 134.503 61.3127 133.572 61.9418C134.867 61.478 136.287 61.5043 137.564 62.0157C138.842 62.5271 139.889 63.4884 140.508 64.7189C141.128 65.9495 141.278 67.3645 140.93 68.6981C140.582 70.0318 139.76 71.1921 138.619 71.9611C139.872 71.5139 140.927 70.6373 141.598 69.4862C142.269 68.3351 142.513 66.9834 142.286 65.6698C142.059 64.3562 141.377 63.1651 140.359 62.3068C139.341 61.4486 138.053 60.9783 136.723 60.9791Z" fill="#F55F44"/>
<path d="M126.685 45.2624C124.064 45.2584 121.524 46.1721 119.504 47.8455C121.975 46.5288 124.846 46.1789 127.561 46.8636C130.275 47.5483 132.638 49.2188 134.193 51.5512C135.748 53.8835 136.383 56.7113 135.975 59.4862C135.567 62.261 134.145 64.7851 131.985 66.5688C134.21 65.384 135.975 63.4875 137 61.181C138.026 58.8745 138.251 56.2906 137.642 53.8406C137.033 51.3907 135.623 49.2153 133.638 47.6608C131.652 46.1064 129.205 45.2621 126.685 45.2624Z" fill="#F55F44"/>
<path d="M105.356 78.5819C105.356 78.5819 108.493 99.328 148.015 88.0119L128.568 71.0378L105.356 78.5819Z" fill="#F55F44"/>
<path d="M39.0047 197.391H22.7655C19.7455 197.391 17.2974 199.845 17.2974 202.871V203.5C17.2974 206.527 19.7455 208.98 22.7655 208.98H39.0047C42.0246 208.98 44.4728 206.527 44.4728 203.5V202.871C44.4728 199.845 42.0246 197.391 39.0047 197.391Z" fill="url(#paint2_linear)"/>
<g opacity="0.7">
<path opacity="0.7" d="M227.612 189.989V185.813H206.778V205.126C206.778 206.206 207.206 207.241 207.968 208.005C208.73 208.768 209.763 209.197 210.841 209.197H223.55C224.627 209.197 225.66 208.768 226.422 208.005C227.184 207.241 227.612 206.206 227.612 205.126V200.846C229.049 200.846 230.427 200.274 231.443 199.256C232.459 198.238 233.029 196.857 233.029 195.417C233.029 193.977 232.459 192.597 231.443 191.579C230.427 190.56 229.049 189.989 227.612 189.989ZM227.612 198.758V192.076C228.496 192.077 229.343 192.43 229.967 193.056C230.592 193.683 230.942 194.532 230.942 195.417C230.942 196.302 230.592 197.152 229.967 197.778C229.343 198.404 228.496 198.757 227.612 198.758Z" fill="url(#paint3_linear)"/>
</g>
<path d="M226.942 190.642C225.964 190.642 225.008 190.933 224.194 191.477C223.381 192.022 222.747 192.796 222.373 193.702C221.998 194.608 221.9 195.604 222.091 196.566C222.282 197.527 222.753 198.41 223.445 199.103C224.136 199.797 225.018 200.269 225.977 200.46C226.937 200.651 227.931 200.553 228.835 200.178C229.738 199.803 230.511 199.167 231.054 198.352C231.598 197.537 231.888 196.579 231.888 195.599C231.888 194.948 231.76 194.303 231.511 193.702C231.263 193.101 230.899 192.554 230.439 192.094C229.98 191.634 229.435 191.269 228.835 191.019C228.235 190.77 227.592 190.642 226.942 190.642ZM226.942 198.649C226.34 198.649 225.752 198.47 225.251 198.135C224.751 197.8 224.36 197.323 224.13 196.766C223.9 196.209 223.839 195.595 223.957 195.004C224.074 194.412 224.364 193.868 224.79 193.442C225.215 193.015 225.758 192.725 226.348 192.607C226.939 192.489 227.551 192.55 228.107 192.781C228.663 193.012 229.138 193.402 229.473 193.904C229.807 194.406 229.986 194.995 229.986 195.599C229.986 196.408 229.665 197.183 229.094 197.755C228.523 198.327 227.749 198.649 226.942 198.649Z" fill="#6C63FF"/>
<path opacity="0.1" d="M226.942 190.642C225.964 190.642 225.008 190.933 224.194 191.477C223.381 192.022 222.747 192.796 222.373 193.702C221.998 194.608 221.9 195.604 222.091 196.566C222.282 197.527 222.753 198.41 223.445 199.103C224.136 199.797 225.018 200.269 225.977 200.46C226.937 200.651 227.931 200.553 228.835 200.178C229.738 199.803 230.511 199.167 231.054 198.352C231.598 197.537 231.888 196.579 231.888 195.599C231.888 194.948 231.76 194.303 231.511 193.702C231.263 193.101 230.899 192.554 230.439 192.094C229.98 191.634 229.435 191.269 228.835 191.019C228.235 190.77 227.592 190.642 226.942 190.642ZM226.942 198.649C226.34 198.649 225.752 198.47 225.251 198.135C224.751 197.8 224.36 197.323 224.13 196.766C223.9 196.209 223.839 195.595 223.957 195.004C224.074 194.412 224.364 193.868 224.79 193.442C225.215 193.015 225.758 192.725 226.348 192.607C226.939 192.489 227.551 192.55 228.107 192.781C228.663 193.012 229.138 193.402 229.473 193.904C229.807 194.406 229.986 194.995 229.986 195.599C229.986 196.408 229.665 197.183 229.094 197.755C228.523 198.327 227.749 198.649 226.942 198.649Z" fill="black"/>
<path d="M207.919 186.829H226.942V204.444C226.942 205.435 226.549 206.385 225.85 207.086C225.151 207.787 224.202 208.181 223.213 208.181H211.648C210.659 208.181 209.711 207.787 209.012 207.086C208.312 206.385 207.919 205.435 207.919 204.444V186.829Z" fill="url(#paint4_linear)"/>
<path d="M246.916 208.181H0V216.569H246.916V208.181Z" fill="#E0E0E0"/>
<g opacity="0.7">
<path opacity="0.7" d="M170.415 147.584H76.5007C73.4379 147.584 70.9551 150.072 70.9551 153.142V202.623C70.9551 205.692 73.4379 208.181 76.5007 208.181H170.415C173.478 208.181 175.961 205.692 175.961 202.623V153.142C175.961 150.072 173.478 147.584 170.415 147.584Z" fill="url(#paint5_linear)"/>
</g>
<path d="M163.796 148.702H83.1206C77.4524 148.702 72.8574 153.307 72.8574 158.988V197.895C72.8574 203.576 77.4524 208.181 83.1206 208.181H163.796C169.464 208.181 174.059 203.576 174.059 197.895V158.988C174.059 153.307 169.464 148.702 163.796 148.702Z" fill="#535461"/>
<path d="M123.458 181.873C125.349 181.873 126.882 180.337 126.882 178.441C126.882 176.546 125.349 175.01 123.458 175.01C121.567 175.01 120.034 176.546 120.034 178.441C120.034 180.337 121.567 181.873 123.458 181.873Z" fill="white"/>
<path d="M236.454 216.569H10.4626V220H236.454V216.569Z" fill="#E0E0E0"/>
<path opacity="0.1" d="M236.454 216.569H10.4626V217.712H236.454V216.569Z" fill="black"/>
<path opacity="0.1" d="M223.518 186.829V204.463C223.518 205.449 223.127 206.395 222.432 207.092C221.736 207.789 220.792 208.181 219.809 208.181H221.711C222.695 208.181 223.638 207.789 224.334 207.092C225.03 206.395 225.42 205.449 225.42 204.463V186.829H223.518Z" fill="black"/>
<path d="M211.673 172.617C211.51 172.622 211.351 172.663 211.206 172.737C211.061 172.811 210.933 172.916 210.833 173.044C210.584 173.498 211.036 174.009 211.448 174.32C212.211 174.896 213.014 175.461 213.532 176.264C214.051 177.067 214.213 178.188 213.647 178.958C212.907 179.963 211.143 180.18 210.972 181.417C210.862 182.211 211.547 182.889 212.242 183.287C213.955 184.271 216.164 184.533 217.405 186.072C217.919 185.014 219.067 184.403 220.212 184.141C221.357 183.88 222.546 183.9 223.707 183.723C223.896 183.719 224.082 183.671 224.25 183.582C224.417 183.493 224.562 183.365 224.671 183.21C224.995 182.55 224.071 181.759 224.39 181.096C224.633 180.592 225.346 180.631 225.867 180.429C226.716 180.101 227.066 179.006 226.825 178.127C226.584 177.248 225.904 176.561 225.188 175.998C223.261 174.48 220.943 173.587 218.598 172.945C217.508 172.646 216.228 172.178 215.095 172.133C214.002 172.089 212.755 172.431 211.673 172.617Z" fill="#EEEEEE"/>
<path opacity="0.1" d="M330 0H163.832V114.089H330V0Z" fill="#535461"/>
<g opacity="0.5">
<path opacity="0.5" d="M216.378 11.236H180.704C179.754 11.236 178.983 12.0082 178.983 12.9608V45.678C178.983 46.6305 179.754 47.4027 180.704 47.4027H216.378C217.329 47.4027 218.099 46.6305 218.099 45.678V12.9608C218.099 12.0082 217.329 11.236 216.378 11.236Z" fill="url(#paint6_linear)"/>
</g>
<path d="M215.953 11.5164H181.182C180.231 11.5164 179.46 12.2886 179.46 13.2412V45.0813C179.46 46.0339 180.231 46.8061 181.182 46.8061H215.953C216.904 46.8061 217.674 46.0339 217.674 45.0813V13.2412C217.674 12.2886 216.904 11.5164 215.953 11.5164Z" fill="#F5F5F5"/>
<path d="M187.129 17.329H184.127C183.176 17.329 182.406 18.1012 182.406 19.0537V21.4167C182.406 22.3693 183.176 23.1415 184.127 23.1415H187.129C188.08 23.1415 188.85 22.3693 188.85 21.4167V19.0537C188.85 18.1012 188.08 17.329 187.129 17.329Z" fill="url(#paint7_linear)"/>
<path d="M216.098 17.329H191.088C190.92 17.329 190.784 17.4657 190.784 17.6344V17.6694C190.784 17.8381 190.92 17.9748 191.088 17.9748H216.098C216.266 17.9748 216.403 17.8381 216.403 17.6694V17.6344C216.403 17.4657 216.266 17.329 216.098 17.329Z" fill="#E0E0E0"/>
<path d="M216.098 19.2664H191.088C190.92 19.2664 190.784 19.4031 190.784 19.5718V19.6069C190.784 19.7755 190.92 19.9123 191.088 19.9123H216.098C216.266 19.9123 216.403 19.7755 216.403 19.6069V19.5718C216.403 19.4031 216.266 19.2664 216.098 19.2664Z" fill="#E0E0E0"/>
<path d="M216.098 26.2989H182.066C181.898 26.2989 181.761 26.4356 181.761 26.6043V26.6393C181.761 26.808 181.898 26.9447 182.066 26.9447H216.098C216.266 26.9447 216.403 26.808 216.403 26.6393V26.6043C216.403 26.4356 216.266 26.2989 216.098 26.2989Z" fill="#E0E0E0"/>
<path d="M216.098 28.2363H182.066C181.898 28.2363 181.761 28.3731 181.761 28.5417V28.5768C181.761 28.7454 181.898 28.8822 182.066 28.8822H216.098C216.266 28.8822 216.403 28.7454 216.403 28.5768V28.5417C216.403 28.3731 216.266 28.2363 216.098 28.2363Z" fill="#E0E0E0"/>
<path d="M216.098 30.8197H182.066C181.898 30.8197 181.761 30.9564 181.761 31.1251V31.1602C181.761 31.3288 181.898 31.4655 182.066 31.4655H216.098C216.266 31.4655 216.403 31.3288 216.403 31.1602V31.1251C216.403 30.9564 216.266 30.8197 216.098 30.8197Z" fill="#E0E0E0"/>
<path d="M201.435 32.7572H182.066C181.898 32.7572 181.761 32.8939 181.761 33.0626V33.0976C181.761 33.2663 181.898 33.403 182.066 33.403H201.435C201.603 33.403 201.739 33.2663 201.739 33.0976V33.0626C201.739 32.8939 201.603 32.7572 201.435 32.7572Z" fill="#E0E0E0"/>
<path d="M216.098 35.3343H182.066C181.898 35.3343 181.761 35.471 181.761 35.6397V35.6747C181.761 35.8434 181.898 35.9801 182.066 35.9801H216.098C216.266 35.9801 216.403 35.8434 216.403 35.6747V35.6397C216.403 35.471 216.266 35.3343 216.098 35.3343Z" fill="#E0E0E0"/>
<path d="M216.098 37.2717H182.066C181.898 37.2717 181.761 37.4085 181.761 37.5771V37.6122C181.761 37.7808 181.898 37.9176 182.066 37.9176H216.098C216.266 37.9176 216.403 37.7808 216.403 37.6122V37.5771C216.403 37.4085 216.266 37.2717 216.098 37.2717Z" fill="#E0E0E0"/>
<path d="M216.098 39.8551H182.066C181.898 39.8551 181.761 39.9918 181.761 40.1605V40.1956C181.761 40.3642 181.898 40.5009 182.066 40.5009H216.098C216.266 40.5009 216.403 40.3642 216.403 40.1956V40.1605C216.403 39.9918 216.266 39.8551 216.098 39.8551Z" fill="#E0E0E0"/>
<path d="M201.435 41.7926H182.066C181.898 41.7926 181.761 41.9293 181.761 42.098V42.1331C181.761 42.3017 181.898 42.4384 182.066 42.4384H201.435C201.603 42.4384 201.739 42.3017 201.739 42.1331V42.098C201.739 41.9293 201.603 41.7926 201.435 41.7926Z" fill="#E0E0E0"/>
<g opacity="0.5">
<path opacity="0.5" d="M222.281 19.5936H186.607C185.657 19.5936 184.886 20.3658 184.886 21.3183V54.0355C184.886 54.9881 185.657 55.7603 186.607 55.7603H222.281C223.232 55.7603 224.002 54.9881 224.002 54.0355V21.3183C224.002 20.3658 223.232 19.5936 222.281 19.5936Z" fill="url(#paint8_linear)"/>
</g>
<path d="M221.857 19.874H187.085C186.135 19.874 185.364 20.6462 185.364 21.5987V53.4389C185.364 54.3914 186.135 55.1636 187.085 55.1636H221.857C222.807 55.1636 223.578 54.3914 223.578 53.4389V21.5987C223.578 20.6462 222.807 19.874 221.857 19.874Z" fill="white"/>
<path d="M193.033 25.6865H190.03C189.08 25.6865 188.309 26.4587 188.309 27.4112V29.7742C188.309 30.7268 189.08 31.499 190.03 31.499H193.033C193.983 31.499 194.754 30.7268 194.754 29.7742V27.4112C194.754 26.4587 193.983 25.6865 193.033 25.6865Z" fill="url(#paint9_linear)"/>
<path d="M222.001 25.6865H196.992C196.823 25.6865 196.687 25.8232 196.687 25.9918V26.0269C196.687 26.1956 196.823 26.3323 196.992 26.3323H222.001C222.17 26.3323 222.306 26.1956 222.306 26.0269V25.9918C222.306 25.8232 222.17 25.6865 222.001 25.6865Z" fill="#E0E0E0"/>
<path d="M222.001 27.624H196.992C196.823 27.624 196.687 27.7607 196.687 27.9293V27.9644C196.687 28.1331 196.823 28.2698 196.992 28.2698H222.001C222.17 28.2698 222.306 28.1331 222.306 27.9644V27.9293C222.306 27.7607 222.17 27.624 222.001 27.624Z" fill="#E0E0E0"/>
<path d="M222.001 34.6564H187.969C187.801 34.6564 187.665 34.7932 187.665 34.9618V34.9969C187.665 35.1655 187.801 35.3023 187.969 35.3023H222.001C222.169 35.3023 222.306 35.1655 222.306 34.9969V34.9618C222.306 34.7932 222.169 34.6564 222.001 34.6564Z" fill="#E0E0E0"/>
<path d="M222.001 36.5939H187.969C187.801 36.5939 187.665 36.7306 187.665 36.8993V36.9343C187.665 37.103 187.801 37.2397 187.969 37.2397H222.001C222.169 37.2397 222.306 37.103 222.306 36.9343V36.8993C222.306 36.7306 222.169 36.5939 222.001 36.5939Z" fill="#E0E0E0"/>
<path d="M222.001 39.1772H187.969C187.801 39.1772 187.665 39.314 187.665 39.4826V39.5177C187.665 39.6863 187.801 39.8231 187.969 39.8231H222.001C222.169 39.8231 222.306 39.6863 222.306 39.5177V39.4826C222.306 39.314 222.169 39.1772 222.001 39.1772Z" fill="#E0E0E0"/>
<path d="M207.338 41.1147H187.969C187.801 41.1147 187.665 41.2515 187.665 41.4201V41.4552C187.665 41.6239 187.801 41.7606 187.969 41.7606H207.338C207.506 41.7606 207.643 41.6239 207.643 41.4552V41.4201C207.643 41.2515 207.506 41.1147 207.338 41.1147Z" fill="#E0E0E0"/>
<path d="M222.001 43.6918H187.969C187.801 43.6918 187.665 43.8286 187.665 43.9972V44.0323C187.665 44.2009 187.801 44.3377 187.969 44.3377H222.001C222.169 44.3377 222.306 44.2009 222.306 44.0323V43.9972C222.306 43.8286 222.169 43.6918 222.001 43.6918Z" fill="#E0E0E0"/>
<path d="M222.001 45.6293H187.969C187.801 45.6293 187.665 45.7661 187.665 45.9347V45.9698C187.665 46.1384 187.801 46.2752 187.969 46.2752H222.001C222.169 46.2752 222.306 46.1384 222.306 45.9698V45.9347C222.306 45.7661 222.169 45.6293 222.001 45.6293Z" fill="#E0E0E0"/>
<path d="M222.001 48.2126H187.969C187.801 48.2126 187.665 48.3494 187.665 48.518V48.5531C187.665 48.7218 187.801 48.8585 187.969 48.8585H222.001C222.169 48.8585 222.306 48.7218 222.306 48.5531V48.518C222.306 48.3494 222.169 48.2126 222.001 48.2126Z" fill="#E0E0E0"/>
<path d="M207.338 50.1501H187.969C187.801 50.1501 187.665 50.2869 187.665 50.4555V50.4906C187.665 50.6592 187.801 50.796 187.969 50.796H207.338C207.506 50.796 207.643 50.6592 207.643 50.4906V50.4555C207.643 50.2869 207.506 50.1501 207.338 50.1501Z" fill="#E0E0E0"/>
<path d="M261.713 25.065H240.169V45.8084H261.713V25.065Z" fill="url(#paint10_linear)"/>
<path d="M261.375 25.573H240.507V45.3851H261.375V25.573Z" fill="#F5F5F5"/>
<g opacity="0.6">
<path opacity="0.6" d="M254.87 37.3417H247.351V38.3577H254.87V37.3417Z" fill="#6C63FF"/>
</g>
<path d="M257.362 39.2044H244.52V40.2204H257.362V39.2044Z" fill="#BDBDBD"/>
<g opacity="0.5">
<path opacity="0.5" d="M318.56 6.91449H271.581V62.2303H318.56V6.91449Z" fill="url(#paint11_linear)"/>
</g>
<path d="M317.56 7.80487H273.024V61.006H317.56V7.80487Z" fill="white"/>
<path d="M311.007 31.1463H279.688V32.4819H311.007V31.1463Z" fill="#E0E0E0"/>
<path d="M311.007 39.939H279.688V41.2746H311.007V39.939Z" fill="#E0E0E0"/>
<path d="M311.007 42.2762H279.688V43.6118H311.007V42.2762Z" fill="#E0E0E0"/>
<path d="M292.904 37.6017H279.688V38.9373H292.904V37.6017Z" fill="#E0E0E0"/>
<path opacity="0.6" d="M311.008 37.6017H301.123V38.9373H311.008V37.6017Z" fill="#3AD29F"/>
<path d="M300.568 47.7299H290.684V49.0655H300.568V47.7299Z" fill="url(#paint12_linear)"/>
<g opacity="0.5">
<path opacity="0.5" d="M272.084 77.7879H244.17V100.764H272.084V77.7879Z" fill="url(#paint13_linear)"/>
</g>
<path d="M271.704 78.2224H244.495V100.384H271.704V78.2224Z" fill="#F2F2F2"/>
<path d="M271.704 78.2224H244.495V83.1654H271.704V78.2224Z" fill="url(#paint14_linear)"/>
<path opacity="0.1" d="M271.704 78.2224H244.495V83.1654H271.704V78.2224Z" fill="black"/>
<path d="M269.537 84.9579H246.664V87.8367H269.537V84.9579Z" fill="#E0E0E0"/>
<path d="M263.358 90.0094H246.664V90.9871H263.358V90.0094Z" fill="#E0E0E0"/>
<path d="M257.504 91.6933H246.664V92.671H257.504V91.6933Z" fill="#E0E0E0"/>
<path d="M260.973 93.3771H246.664V94.3549H260.973V93.3771Z" fill="#E0E0E0"/>
<path d="M263.358 95.061H246.664V96.0387H263.358V95.061Z" fill="#E0E0E0"/>
<path d="M252.246 96.7449H246.664V97.7226H252.246V96.7449Z" fill="#E0E0E0"/>
<g opacity="0.5">
<path opacity="0.5" d="M261.29 69.3607H226.692V97.8394H261.29V69.3607Z" fill="url(#paint15_linear)"/>
</g>
<path d="M260.82 69.8993H227.095V97.3681H260.82V69.8993Z" fill="white"/>
<path d="M260.82 69.8993H227.095V76.0259H260.82V69.8993Z" fill="url(#paint16_linear)"/>
<path d="M258.133 78.2477H229.782V81.816H258.133V78.2477Z" fill="#F5F5F5"/>
<path d="M250.474 84.509H229.782V85.7208H250.474V84.509Z" fill="#E0E0E0"/>
<path d="M243.219 86.5961H229.782V87.8079H243.219V86.5961Z" fill="#E0E0E0"/>
<path d="M247.518 88.6832H229.782V89.895H247.518V88.6832Z" fill="#E0E0E0"/>
<path d="M250.474 90.7702H229.782V91.9821H250.474V90.7702Z" fill="#E0E0E0"/>
<path d="M236.702 92.8573H229.782V94.0692H236.702V92.8573Z" fill="#E0E0E0"/>
<path d="M239.322 79.4595H231.26V80.5368H239.322V79.4595Z" fill="#69F0AE"/>
<path opacity="0.1" d="M179.515 144.988C182.095 144.988 184.186 142.892 184.186 140.306C184.186 137.721 182.095 135.625 179.515 135.625C176.935 135.625 174.843 137.721 174.843 140.306C174.843 142.892 176.935 144.988 179.515 144.988Z" fill="#535461"/>
<path opacity="0.1" d="M188.19 129.94C190.77 129.94 192.862 127.844 192.862 125.259C192.862 122.674 190.77 120.578 188.19 120.578C185.61 120.578 183.519 122.674 183.519 125.259C183.519 127.844 185.61 129.94 188.19 129.94Z" fill="#535461"/>
<defs>
<linearGradient id="paint0_linear" x1="123.624" y1="186.306" x2="123.624" y2="43.2246" gradientUnits="userSpaceOnUse">
<stop stop-color="#808080" stop-opacity="0.25"/>
<stop offset="0.53514" stop-color="#808080" stop-opacity="0.12"/>
<stop offset="1" stop-color="#808080" stop-opacity="0.1"/>
</linearGradient>
<linearGradient id="paint1_linear" x1="128.084" y1="124.575" x2="125.413" y2="193.752" gradientUnits="userSpaceOnUse">
<stop stop-color="#0FAABF"/>
<stop offset="1" stop-color="#0B68F2"/>
</linearGradient>
<linearGradient id="paint2_linear" x1="32.2898" y1="195.486" x2="31.8559" y2="211.135" gradientUnits="userSpaceOnUse">
<stop stop-color="#0FAABF"/>
<stop offset="1" stop-color="#0B68F2"/>
</linearGradient>
<linearGradient id="paint3_linear" x1="19726.2" y1="16761.2" x2="19726.2" y2="15334.4" gradientUnits="userSpaceOnUse">
<stop stop-color="#808080" stop-opacity="0.25"/>
<stop offset="0.53514" stop-color="#808080" stop-opacity="0.12"/>
<stop offset="1" stop-color="#808080" stop-opacity="0.1"/>
</linearGradient>
<linearGradient id="paint4_linear" x1="218.414" y1="183.319" x2="216.32" y2="212.021" gradientUnits="userSpaceOnUse">
<stop stop-color="#0FAABF"/>
<stop offset="1" stop-color="#0B68F2"/>
</linearGradient>
<linearGradient id="paint5_linear" x1="33967.2" y1="33061.2" x2="33967.2" y2="23480.8" gradientUnits="userSpaceOnUse">
<stop stop-color="#808080" stop-opacity="0.25"/>
<stop offset="0.53514" stop-color="#808080" stop-opacity="0.12"/>
<stop offset="1" stop-color="#808080" stop-opacity="0.1"/>
</linearGradient>
<linearGradient id="paint6_linear" x1="20484.9" y1="4484.27" x2="20484.9" y2="1071.49" gradientUnits="userSpaceOnUse">
<stop stop-color="#808080" stop-opacity="0.25"/>
<stop offset="0.53514" stop-color="#808080" stop-opacity="0.12"/>
<stop offset="1" stop-color="#808080" stop-opacity="0.1"/>
</linearGradient>
<linearGradient id="paint7_linear" x1="185.961" y1="16.3733" x2="185.502" y2="24.2015" gradientUnits="userSpaceOnUse">
<stop stop-color="#0FAABF"/>
<stop offset="1" stop-color="#0B68F2"/>
</linearGradient>
<linearGradient id="paint8_linear" x1="21094.6" y1="5281.26" x2="21094.6" y2="1868.49" gradientUnits="userSpaceOnUse">
<stop stop-color="#808080" stop-opacity="0.25"/>
<stop offset="0.53514" stop-color="#808080" stop-opacity="0.12"/>
<stop offset="1" stop-color="#808080" stop-opacity="0.1"/>
</linearGradient>
<linearGradient id="paint9_linear" x1="191.864" y1="24.7308" x2="191.405" y2="32.559" gradientUnits="userSpaceOnUse">
<stop stop-color="#0FAABF"/>
<stop offset="1" stop-color="#0B68F2"/>
</linearGradient>
<linearGradient id="paint10_linear" x1="14375.8" y1="2504.29" x2="14375.8" y2="1381.62" gradientUnits="userSpaceOnUse">
<stop stop-color="#808080" stop-opacity="0.25"/>
<stop offset="0.53514" stop-color="#808080" stop-opacity="0.12"/>
<stop offset="1" stop-color="#808080" stop-opacity="0.1"/>
</linearGradient>
<linearGradient id="paint11_linear" x1="36516.6" y1="8988.25" x2="36516.6" y2="1004.84" gradientUnits="userSpaceOnUse">
<stop stop-color="#808080" stop-opacity="0.25"/>
<stop offset="0.53514" stop-color="#808080" stop-opacity="0.12"/>
<stop offset="1" stop-color="#808080" stop-opacity="0.1"/>
</linearGradient>
<linearGradient id="paint12_linear" x1="296.137" y1="47.5103" x2="296.121" y2="49.3151" gradientUnits="userSpaceOnUse">
<stop stop-color="#0FAABF"/>
<stop offset="1" stop-color="#0B68F2"/>
</linearGradient>
<linearGradient id="paint13_linear" x1="19083.8" y1="6118.38" x2="19083.8" y2="4740.99" gradientUnits="userSpaceOnUse">
<stop stop-color="#808080" stop-opacity="0.25"/>
<stop offset="0.53514" stop-color="#808080" stop-opacity="0.12"/>
<stop offset="1" stop-color="#808080" stop-opacity="0.1"/>
</linearGradient>
<linearGradient id="paint14_linear" x1="259.506" y1="77.4097" x2="259.427" y2="84.0888" gradientUnits="userSpaceOnUse">
<stop stop-color="#0FAABF"/>
<stop offset="1" stop-color="#0B68F2"/>
</linearGradient>
<linearGradient id="paint15_linear" x1="22299.2" y1="7339.18" x2="22299.2" y2="5223.11" gradientUnits="userSpaceOnUse">
<stop stop-color="#808080" stop-opacity="0.25"/>
<stop offset="0.53514" stop-color="#808080" stop-opacity="0.12"/>
<stop offset="1" stop-color="#808080" stop-opacity="0.1"/>
</linearGradient>
<linearGradient id="paint16_linear" x1="245.701" y1="68.8919" x2="245.603" y2="77.1705" gradientUnits="userSpaceOnUse">
<stop stop-color="#0FAABF"/>
<stop offset="1" stop-color="#0B68F2"/>
</linearGradient>
</defs>
</svg>
