<svg width="670" height="480" viewBox="0 0 670 480" fill="none" xmlns="http://www.w3.org/2000/svg">
<rect x="0.5" y="0.5" width="669" height="479" rx="3.5" fill="white" stroke="black"/>
<circle cx="22" cy="22" r="5.5" stroke="black"/>
<circle cx="46" cy="22" r="5.5" stroke="black"/>
<circle cx="70" cy="22" r="5.5" stroke="black"/>
<path d="M177.194 283.31C188.378 275.536 229.99 261.534 249.398 255.504H271.197C284.134 258.714 313.2 266.43 325.965 271.61C338.73 276.79 362.001 307.461 371.345 321.705L361.179 341.191C335.304 366.744 356.152 389.304 369.951 397.649C349.252 397.649 340.34 389.88 338.471 385.995C340.541 397.735 342.208 426.569 342.783 439.518H190.555V415.984H132.494C127.144 357.387 163.214 293.028 177.194 283.31Z" fill="url(#paint0_linear)"/>
<ellipse cx="261.941" cy="273.992" rx="25.9198" ry="18.4877" fill="#FB9191"/>
<path d="M242.698 272.083C246.063 252.72 244.877 234.803 244.352 228.621C245.088 222.833 275.685 233.673 290.403 239.461C282.098 243.67 279.846 264.717 279.759 274.714C280.021 278.002 277.971 284.974 267.668 286.553C250.426 288.552 243.837 277.739 242.698 272.083Z" fill="url(#paint1_linear)"/>
<mask id="mask0" mask-type="alpha" maskUnits="userSpaceOnUse" x="242" y="226" width="49" height="61">
<path d="M242.698 272.083C246.063 252.72 244.877 234.803 244.352 228.621C245.088 222.833 275.685 233.673 290.403 239.461C282.098 243.67 279.846 264.717 279.759 274.714C280.021 278.002 277.971 284.974 267.668 286.553C250.426 288.552 243.837 277.739 242.698 272.083Z" fill="#BABABA"/>
</mask>
<g mask="url(#mask0)">
<path opacity="0.1" d="M285.31 259.548C264.59 256.312 249.227 238.078 244.136 229.366C255.963 226.924 282.555 223.505 294.311 229.366C306.068 235.226 293.209 251.929 285.31 259.548Z" fill="black"/>
</g>
<path d="M278.998 243.006C313.031 241.525 314.004 194.94 310.236 171.833C248.746 119.666 224.057 160.656 219.399 187.672C225.085 206.734 244.965 244.487 278.998 243.006Z" fill="url(#paint2_linear)"/>
<path d="M235.069 125.27C225.278 122.181 204.865 120.637 201.545 139.172C201.545 151.156 230.439 148.12 235.069 125.27Z" fill="#30235B"/>
<path d="M246.857 186.826L260.725 198.747L259.22 205.699L246.286 194.337L246.857 186.826Z" fill="#111111"/>
<path d="M232.758 197.546C244.595 207.584 245.362 223.258 244.266 229.841C240.43 228.812 229.716 222.148 217.549 203.717C198.149 164.057 221.523 134.395 235.634 124.521C273.449 102.511 324.005 136.657 315.168 162.782C306.331 188.906 264.064 182.872 248.376 172.861C251.664 182.735 248.65 192.472 246.732 196.106C239.334 178.826 217.961 184.998 232.758 197.546Z" fill="#30235B"/>
<path d="M258.098 119.424C283.279 112.184 298.615 125.233 303.135 132.663C298.057 129.925 283.982 126.093 268.311 132.663C243.532 144.058 238.119 168.357 238.509 179.082L222.102 177.909V171.876C223.609 157.409 232.917 126.663 258.098 119.424Z" fill="white"/>
<ellipse cx="228.821" cy="193.787" rx="19.2584" ry="23.5827" fill="white"/>
<ellipse cx="228.821" cy="193.787" rx="19.2584" ry="23.5827" fill="white"/>
<ellipse cx="228.822" cy="193.787" rx="9.19263" ry="11.2567" fill="#24C28A"/>
<path opacity="0.5" d="M312.968 190.188C305.83 187.98 298.142 192.688 295.19 195.318C289.823 200.447 297.962 213.49 307.371 207.482C314.899 202.675 314.239 193.95 312.968 190.188Z" fill="#E6FCFF"/>
<path fill-rule="evenodd" clip-rule="evenodd" d="M292.166 193.769C302.49 184.223 312.282 185.855 315.887 187.864C317.973 193.394 315.887 209.551 304.372 210.983C295.161 212.129 292.004 205.001 291.577 201.294C289.826 199.878 288.663 201.098 288.3 201.885C288.603 212.189 280.327 219.159 271.446 217.543C264.341 216.25 261.248 209.143 260.59 205.752H259.121V199.723C268.373 190.655 281.155 192.878 286.389 195.123C287.766 194.04 290.814 193.769 292.166 193.769ZM312.426 190.835C305.288 188.627 298.766 192.411 295.814 195.041C290.447 200.17 297.496 212.736 307.346 207.482C313.244 204.335 313.697 194.597 312.426 190.835ZM272.063 197.559C275.961 196.289 283.909 195.44 284.518 202.199C285.279 210.649 277.599 216.882 270.887 213.558C266.027 211.151 264.036 206.216 264.036 203.1C264.036 200.606 269.387 198.367 272.063 197.559Z" fill="#111111"/>
<path opacity="0.5" d="M284.544 202.199C283.935 195.44 275.987 196.289 272.089 197.559C269.413 198.367 264.062 200.606 264.062 203.1C264.062 206.216 266.053 211.151 270.912 213.558C277.624 216.882 285.305 210.649 284.544 202.199Z" fill="#E6FCFF"/>
<path d="M132.445 416.059C138.432 442.766 173.986 442.82 191.015 439.509L322.274 420.528C323.966 421.999 328.018 425.877 330.69 429.624C333.362 433.371 335.811 430.737 336.701 428.952C340.548 433.123 343.38 431.138 344.316 429.624C347.628 433.799 350.416 432.342 351.396 431.091C355.991 434.514 357.151 431.539 357.156 429.624C350.887 416.336 339.64 403.018 334.8 398.02L302.073 401.019L195.733 390.167C175.559 375.999 124.961 382.676 132.445 416.059Z" fill="url(#paint3_linear)"/>
<path d="M386.766 375.652C380.837 394.817 372.663 398.166 369.318 397.444C334.103 373.858 349.224 349.689 361.187 340.553L392.369 276.292C387.854 272.759 382.824 261.704 383.34 254.733C383.753 249.156 387.553 248.969 389.402 249.573C389.918 243.794 394.088 243.978 396.109 244.792C397.863 238.492 402.945 239.844 405.266 241.307C405.576 232.631 411.586 233.819 414.553 235.497L419.76 249.573C421.887 249.869 426.822 250.553 429.539 250.923C432.936 251.387 437.26 252.005 435.098 256.797C433.369 260.63 424.598 273.746 420.429 279.826C411.679 303.782 392.696 356.487 386.766 375.652Z" fill="url(#paint4_linear)"/>
<path d="M297.007 432.623H365.674C365.674 436.431 362.587 439.518 358.778 439.518H303.902C300.094 439.518 297.007 436.431 297.007 432.623Z" fill="#B4B4B4"/>
<path d="M387.565 347.771C388.046 346.617 389.174 345.865 390.424 345.865H506.376C508.586 345.865 510.085 348.112 509.235 350.152L472.808 437.612C472.327 438.766 471.199 439.518 469.949 439.518H353.997C351.787 439.518 350.288 437.27 351.138 435.23L387.565 347.771Z" fill="url(#paint5_linear)"/>
<path d="M195.774 390.135L198.853 365.873" stroke="#30235B" stroke-width="0.619401"/>
<path d="M338.377 386.138C337.915 383.29 337.13 376.407 337.684 371.658" stroke="#30235B" stroke-width="0.619401"/>
<path d="M337.54 376.969L334.891 371.596" stroke="#30235B" stroke-width="0.619401"/>
<path d="M336.603 428.73L328.002 417.864" stroke="#30235B" stroke-width="0.619401"/>
<path d="M344.216 429.267L330.793 411.831" stroke="#30235B" stroke-width="0.619401"/>
<path d="M351.273 430.865L334.588 406.803" stroke="#30235B" stroke-width="0.619401"/>
<path d="M389.398 249.677C389.857 252.07 391.357 257.727 393.678 261.211" stroke="#30235B" stroke-width="0.619401"/>
<path d="M405.295 241.358C405.998 243.827 407.828 249.396 409.524 251.918" stroke="#30235B" stroke-width="0.619401"/>
<path d="M396.016 244.945C396.844 247.633 398.9 253.543 400.499 255.677" stroke="#30235B" stroke-width="0.619401"/>
<path d="M419.694 249.564L422.253 257.058" stroke="#30235B" stroke-width="0.619401"/>
<ellipse rx="7.8462" ry="11.3675" transform="matrix(0.940188 0.340655 -0.340096 0.940391 434.396 394.921)" fill="white"/>
<rect width="126.241" height="10.3353" transform="matrix(-0.459418 0.88822 -0.887872 -0.460091 637.143 319.585)" fill="#A5A1A1"/>
<rect x="548.021" y="423.912" width="58.3246" height="15.6063" rx="3.09701" fill="#30235B"/>
<rect width="67.7852" height="10.3389" transform="matrix(-0.763113 -0.646265 0.645566 -0.763704 630.469 320.599)" fill="#E0E0E0"/>
<rect width="19.9936" height="3.56237" transform="matrix(-0.951663 0.307144 -0.306627 -0.95183 579.842 272.286)" fill="#E0E0E0"/>
<ellipse cx="632.781" cy="316.434" rx="7.21871" ry="7.22541" fill="#30235B"/>
<path d="M575.327 267.066L585.44 268.945L578.758 276.772L575.327 267.066Z" fill="#30235B"/>
<path d="M543.836 263.687C546.162 257.833 552.79 254.98 558.64 257.314C564.49 259.648 567.348 266.285 565.022 272.138L558.584 288.342L537.398 279.891L543.836 263.687Z" fill="#30235B"/>
<path d="M550.548 280.218C527.032 270.975 511.388 291.677 505.864 302.641C522.193 325.943 552.103 328.338 565.658 327.166C570.42 315.368 574.065 289.462 550.548 280.218Z" fill="#30235B"/>
<path d="M75.1408 367.969C60.0096 377.239 55.2482 368.785 54.759 363.399C54.759 355.565 54.759 349.037 44.4868 337.45C19.7027 310.031 27.5292 266.292 61.7704 263.518C96.0115 260.743 86.0653 282.45 73.9994 296.485C61.9573 310.493 69.5667 314.747 87.5887 324.823L87.6958 324.883C111.175 339.082 91.6091 351.812 80.0323 354.096C68.4556 356.381 78.4018 363.399 75.1408 367.969Z" fill="url(#paint6_linear)"/>
<path d="M224.933 216.178C219.571 215.051 208.936 208.012 209.895 191.84" stroke="#30235B" stroke-width="0.949425"/>
<path d="M300.471 129.448C297.552 125.111 290.655 118.701 276.753 118.044" stroke="#30235B" stroke-width="0.949425"/>
<path d="M109.461 406.983C110.741 392.308 97.1915 388.775 88.9025 388.775C87.9048 388.775 87.0534 389.458 86.7644 390.413C86.2921 391.973 87.4886 393.546 89.114 393.668C96.4333 394.22 106.301 397.337 104.48 406.983C102.714 416.344 94.6099 418.109 88.8706 417.713C87.2876 417.604 85.8038 418.782 85.8038 420.369C85.8038 421.551 86.6394 422.577 87.8148 422.7C95.558 423.513 108.207 421.356 109.461 406.983Z" fill="url(#paint7_linear)"/>
<path d="M88.2019 383.608V436.421C88.2019 438.132 86.8154 439.518 85.1049 439.518H43.4546C41.7442 439.518 40.3576 438.132 40.3576 436.421L40.3576 383.608C40.3576 381.897 41.7442 380.511 43.4546 380.511H85.1049C86.8154 380.511 88.2019 381.897 88.2019 383.608Z" fill="url(#paint8_linear)"/>
<path d="M361.145 340.496L370.716 320.851" stroke="#30235B" stroke-width="0.949425"/>
<path d="M281.159 398.776C277.977 409.525 279.833 421.667 281.159 426.395L290.006 425.139C288.162 411.054 289.238 402.347 290.006 399.754L281.159 398.776Z" fill="#30235B"/>
<rect width="16.7329" height="4.34214" rx="2.17107" transform="matrix(0.994481 0.104919 -0.104726 0.994501 277.654 394.173)" fill="url(#paint9_linear)"/>
<rect opacity="0.5" x="401.196" y="93.8899" width="73.7399" height="57.1386" rx="2.54344" stroke="#F0F0F0" stroke-width="1.89885"/>
<path d="M448.836 120.462C450.372 121.349 450.372 123.569 448.836 124.457L429.601 135.572C428.065 136.46 426.145 135.35 426.145 133.574V111.344C426.145 109.568 428.065 108.458 429.601 109.346L448.836 120.462Z" fill="#17A6F7"/>
<rect opacity="0.5" x="416.002" y="101.275" width="42.4966" height="39.185" fill="white"/>
<rect opacity="0.5" x="91.8256" y="39.9494" width="99.7759" height="77.4601" rx="3.7977" stroke="#F0F0F0" stroke-width="1.89885"/>
<path d="M153.079 78.6796C154.285 78.6796 155.441 79.159 156.294 80.0123C157.146 80.8657 157.625 82.0231 157.625 83.2299V96.881C157.625 98.0879 157.146 99.2453 156.294 100.099C155.441 100.952 154.285 101.431 153.079 101.431H130.348C129.142 101.431 127.986 100.952 127.134 100.099C126.281 99.2453 125.802 98.0879 125.802 96.881V83.2299C125.802 82.0231 126.281 80.8657 127.134 80.0123C127.986 79.159 129.142 78.6796 130.348 78.6796V67.3036C130.348 64.2866 131.546 61.3931 133.677 59.2597C135.808 57.1263 138.699 55.9277 141.714 55.9277C144.728 55.9277 147.619 57.1263 149.75 59.2597C151.881 61.3931 153.079 64.2866 153.079 67.3036V78.6796ZM141.714 94.6058C142.919 94.6058 144.076 94.1264 144.928 93.2731C145.781 92.4197 146.26 91.2623 146.26 90.0555C146.26 88.8486 145.781 87.6912 144.928 86.8379C144.076 85.9845 142.919 85.5051 141.714 85.5051C140.508 85.5051 139.352 85.9845 138.499 86.8379C137.646 87.6912 137.167 88.8486 137.167 90.0555C137.167 91.2623 137.646 92.4197 138.499 93.2731C139.352 94.1264 140.508 94.6058 141.714 94.6058ZM148.533 78.6796V67.3036C148.533 65.4934 147.814 63.7573 146.535 62.4773C145.257 61.1972 143.522 60.4781 141.714 60.4781C139.905 60.4781 138.17 61.1972 136.892 62.4773C135.613 63.7573 134.894 65.4934 134.894 67.3036V78.6796H148.533Z" fill="url(#paint10_linear)"/>
<rect opacity="0.5" x="111.726" y="47.0334" width="60.6303" height="58.3661" fill="white"/>
<rect opacity="0.5" x="54.9007" y="165.811" width="110.793" height="80.3761" rx="3.7977" stroke="#F7F7F7" stroke-width="1.89885"/>
<rect x="72.4238" y="200.829" width="18.9499" height="26.536" rx="2.58027" fill="#FF7979"/>
<rect x="100.822" y="184.632" width="18.9499" height="42.7332" rx="2.58027" fill="#9EFFAE"/>
<rect x="129.22" y="191.524" width="18.9499" height="35.8408" rx="2.58027" fill="#FFDEAD"/>
<rect opacity="0.5" x="60.6505" y="178.238" width="96.3013" height="58.3493" fill="white"/>
<defs>
<linearGradient id="paint0_linear" x1="264.025" y1="225.248" x2="251.628" y2="473.311" gradientUnits="userSpaceOnUse">
<stop stop-color="#0FAABF"/>
<stop offset="1" stop-color="#0B68F2"/>
</linearGradient>
<linearGradient id="paint1_linear" x1="263.892" y1="158.103" x2="261.675" y2="268.281" gradientUnits="userSpaceOnUse">
<stop stop-color="#FFEFE0"/>
<stop offset="1" stop-color="#FFBE99"/>
</linearGradient>
<linearGradient id="paint2_linear" x1="265.569" y1="146.7" x2="265.569" y2="243.049" gradientUnits="userSpaceOnUse">
<stop stop-color="#FFEFE0"/>
<stop offset="1" stop-color="#FFBE99"/>
</linearGradient>
<linearGradient id="paint3_linear" x1="244.426" y1="347.186" x2="244.426" y2="430.959" gradientUnits="userSpaceOnUse">
<stop offset="0.0677966" stop-color="#FFEFE0"/>
<stop offset="1" stop-color="#FFBE99"/>
</linearGradient>
<linearGradient id="paint4_linear" x1="361.074" y1="224.232" x2="442.382" y2="319.3" gradientUnits="userSpaceOnUse">
<stop stop-color="#FFEFE0"/>
<stop offset="1" stop-color="#FFBE99"/>
</linearGradient>
<linearGradient id="paint5_linear" x1="463.569" y1="275.577" x2="417.936" y2="464.694" gradientUnits="userSpaceOnUse">
<stop offset="0.0171777" stop-color="white"/>
<stop offset="1" stop-color="#D7D7D7"/>
</linearGradient>
<linearGradient id="paint6_linear" x1="6.59748" y1="379.903" x2="98.8283" y2="263.359" gradientUnits="userSpaceOnUse">
<stop stop-color="#ECECEC"/>
<stop offset="1" stop-color="#F5F5F5" stop-opacity="0"/>
</linearGradient>
<linearGradient id="paint7_linear" x1="117.575" y1="395.919" x2="85.8037" y2="396.616" gradientUnits="userSpaceOnUse">
<stop stop-color="white"/>
<stop offset="1" stop-color="#CCCCCC"/>
</linearGradient>
<linearGradient id="paint8_linear" x1="64.2798" y1="362.697" x2="64.2798" y2="457.817" gradientUnits="userSpaceOnUse">
<stop stop-color="white"/>
<stop offset="1" stop-color="#CCCCCC"/>
</linearGradient>
<linearGradient id="paint9_linear" x1="8.04837" y1="-0.849095" x2="7.93694" y2="4.41311" gradientUnits="userSpaceOnUse">
<stop stop-color="#7F67CE"/>
<stop offset="1" stop-color="#30235B"/>
</linearGradient>
<linearGradient id="paint10_linear" x1="141.714" y1="55.9277" x2="141.714" y2="101.431" gradientUnits="userSpaceOnUse">
<stop stop-color="#FFD5B7"/>
<stop offset="1" stop-color="#FFAB6D"/>
</linearGradient>
</defs>
</svg>
