<svg width="236" height="254" viewBox="0 0 236 254" fill="none" xmlns="http://www.w3.org/2000/svg">
<g clip-path="url(#clip0)">
<path d="M43.5344 43.204L52.9938 33.2503C52.9938 33.2503 63.3992 17.6088 70.9667 21.8747C78.5342 26.1405 60.0884 36.0942 60.0884 36.0942L50.629 51.7358L43.5344 43.204Z" fill="#A0616A"/>
<path d="M13.7374 236.116C13.7374 236.116 6.6428 249.862 11.8455 250.81C17.0481 251.758 42.5885 253.18 43.0615 251.758C43.5345 250.336 47.3182 245.596 44.4804 243.7C41.6426 241.804 30.2913 240.382 30.2913 240.382L26.5075 236.59L13.7374 236.116Z" fill="#2F2E41"/>
<path d="M9.95376 101.978C9.95376 101.978 -5.18127 120.938 7.11594 140.371L9.95376 173.076C9.95376 173.076 4.75109 218.105 11.3727 233.272L12.3186 238.486H28.8726L24.6158 198.671C24.6158 198.671 25.0888 193.931 26.5077 192.984C27.9266 192.036 51.1022 140.845 51.1022 140.845C51.1022 140.845 47.3184 133.735 48.7373 132.313C50.1562 130.891 47.3184 102.452 45.8995 101.504C44.4806 100.556 9.95376 101.978 9.95376 101.978Z" fill="#2F2E41"/>
<path d="M36.913 231.85L38.8048 242.752L20.3591 241.804L22.724 229.954L36.913 231.85Z" fill="#A0616A"/>
<path d="M33.6022 38.4641C41.4386 38.4641 47.7913 32.0978 47.7913 24.2446C47.7913 16.3913 41.4386 10.025 33.6022 10.025C25.7658 10.025 19.4131 16.3913 19.4131 24.2446C19.4131 32.0978 25.7658 38.4641 33.6022 38.4641Z" fill="#A0616A"/>
<path d="M20.832 26.6145L19.4131 43.678L34.5481 50.7878C34.5481 50.7878 31.9468 34.9093 33.8387 30.6434L20.832 26.6145Z" fill="#A0616A"/>
<path d="M36.44 49.8398L35.0211 44.152L15.6293 37.0422C15.6293 37.0422 13.7374 37.0422 14.2104 40.3601C14.6833 43.678 14.6833 43.204 14.6833 43.204C14.6833 43.204 8.06174 46.0479 7.58879 50.7878C7.11583 55.5277 -0.451701 56.9496 0.0212682 64.0594C0.494238 71.1692 2.85909 74.9611 2.85909 74.9611C2.85909 74.9611 0.494236 80.6489 4.278 83.9668C4.278 83.9668 8.06176 90.6026 6.16988 95.3425C4.278 100.082 1.91316 108.14 7.11582 106.718C12.3185 105.296 48.2642 102.926 48.2642 102.926C48.2642 102.926 53.4669 83.4928 47.7913 76.383C47.7913 76.383 47.7912 72.1172 43.5345 63.5854C39.2778 55.0536 36.44 49.8398 36.44 49.8398Z" fill="url(#paint0_linear)"/>
<path d="M11.3726 103.4C11.3726 103.4 17.5212 129.469 25.0887 132.313C25.0887 132.313 26.5076 151.273 34.5481 150.325C42.5886 149.377 34.5481 132.313 34.5481 132.313L25.5617 99.6083L11.3726 103.4Z" fill="#A0616A"/>
<path d="M35.4941 51.2618C35.4941 51.2618 42.5887 39.8861 44.4806 41.782C46.3725 43.678 55.8319 49.3658 55.3589 53.1577C54.8859 56.9496 50.6292 56.9496 50.6292 56.9496L40.6968 64.5334L35.4941 51.2618Z" fill="url(#paint1_linear)"/>
<path d="M45.4264 136.105L51.102 140.194L54.8858 180.66C54.8858 180.66 41.1696 235.642 37.3859 236.116C33.6021 236.59 17.9941 236.59 18.4671 235.168C18.94 233.746 21.3049 228.058 21.3049 226.636C21.3049 225.215 26.2377 213.843 26.2377 213.843L32.6562 187.296L31.2373 166.44L45.4264 136.105Z" fill="#2F2E41"/>
<path d="M38.3319 238.96C38.3319 238.96 18.4671 232.798 17.5212 234.22C16.5753 235.642 10.2657 249.974 19.0961 251.577C27.9266 253.18 59.6155 256.024 59.6155 251.758C59.6155 247.492 58.6696 244.648 55.8318 244.648C52.994 244.648 40.2238 238.486 39.2778 237.064C38.3319 235.642 38.3319 238.96 38.3319 238.96Z" fill="#2F2E41"/>
<path d="M20.1478 25.1792C19.5571 23.961 20.8667 22.635 22.0427 23.3026L22.0676 23.317C22.4798 23.568 22.8091 23.9351 23.0143 24.3724C23.2196 24.8098 23.2917 25.2981 23.2217 25.7763C24.9273 24.0708 23.6703 20.6506 25.5132 19.0951C26.3661 18.3751 27.7508 18.2167 28.189 17.189C28.4441 16.5907 28.2707 15.8815 28.4955 15.2711C28.8294 14.3648 29.8962 13.9863 30.8497 13.8438C33.8483 13.3957 36.8809 14.1582 39.8171 14.9149C40.8968 15.1931 42.0321 15.5023 42.8185 16.2941C43.6468 17.1281 43.935 18.3399 44.4429 19.4008C44.9508 20.4617 48.282 20.3658 49.4466 20.2157C49.8514 19.0632 46.8614 18.9763 46.6173 17.7793C45.9501 14.5073 48.2734 11.028 47.1337 7.88986C46.4469 5.9989 44.6528 4.74716 42.8466 3.86798C37.8289 1.45069 32.101 0.960857 26.7472 2.49121C26.2022 2.61177 25.693 2.85852 25.2603 3.21171C24.5729 3.85481 24.4455 4.88734 23.9877 5.71052C22.9446 7.5861 20.4709 8.03187 18.8028 9.3795C16.2766 11.4205 15.9918 15.1058 15.91 18.3566C15.8688 19.9938 15.8397 21.6949 16.5089 23.189C17.178 24.6831 18.7636 25.9006 20.3677 25.5876C20.2917 25.464 20.2189 25.3258 20.1478 25.1792Z" fill="#2F2E41"/>
<path d="M22.6157 55.8806C20.7848 54.6072 18.5843 53.9779 16.3585 54.0913C14.1328 54.2046 12.0073 55.0542 10.3146 56.507C7.05491 59.283 3.54829 63.2603 3.80505 67.3773C4.27802 74.961 7.11584 106.244 10.8996 106.718C14.6834 107.192 28.3995 103.4 28.3995 101.03C28.3995 98.6603 25.0887 95.8164 25.0887 95.8164L29.1086 71.6453C30.102 65.6722 27.7318 59.5697 22.8279 56.0318C22.7576 55.9812 22.6869 55.9308 22.6157 55.8806Z" fill="url(#paint2_linear)"/>
<g opacity="0.5">
<path opacity="0.5" d="M98.0291 58.7212C111.479 58.7212 122.383 47.7943 122.383 34.3153C122.383 20.8363 111.479 9.90936 98.0291 9.90936C84.579 9.90936 73.6755 20.8363 73.6755 34.3153C73.6755 47.7943 84.579 58.7212 98.0291 58.7212Z" fill="url(#paint3_linear)"/>
</g>
<path d="M98.0765 58.0507C111.243 58.0507 121.917 47.3542 121.917 34.1593C121.917 20.9644 111.243 10.2679 98.0765 10.2679C84.91 10.2679 74.2363 20.9644 74.2363 34.1593C74.2363 47.3542 84.91 58.0507 98.0765 58.0507Z" fill="#F5F5F5"/>
<path d="M111.191 36.5137C111.191 44.4609 105.493 48.3719 98.0955 48.3719C90.6977 48.3719 84.4014 44.4609 84.4014 36.5137C84.4014 28.5665 90.3985 22.124 97.7964 22.124C105.194 22.124 111.191 28.5665 111.191 36.5137Z" fill="#333333"/>
<path d="M98.0955 58.1451C102.754 58.1525 107.311 56.7858 111.2 54.2151C110.322 49.4039 106.979 49.1296 106.979 49.1296H88.5453C88.5453 49.1296 85.3907 49.3892 84.4053 53.815C88.4132 56.6402 93.1955 58.1528 98.0955 58.1451Z" fill="url(#paint4_linear)"/>
<path opacity="0.1" d="M94.1318 43.2609H101.505V49.3782C101.505 50.3034 101.138 51.1907 100.486 51.845C99.8327 52.4992 98.9473 52.8667 98.0241 52.8667H97.6129C96.6897 52.8667 95.8042 52.4992 95.1514 51.845C94.4986 51.1907 94.1318 50.3034 94.1318 49.3782V43.2609H94.1318Z" fill="black"/>
<path d="M94.796 42.9872H100.841C101.017 42.9872 101.186 43.0573 101.311 43.1822C101.435 43.307 101.505 43.4763 101.505 43.6528V49.1045C101.505 50.0297 101.138 50.9171 100.486 51.5713C99.8327 52.2255 98.9473 52.5931 98.0241 52.5931H97.6129C96.6896 52.5931 95.8042 52.2255 95.1514 51.5713C94.4986 50.9171 94.1318 50.0297 94.1318 49.1045V43.6528C94.1318 43.4762 94.2018 43.307 94.3264 43.1821C94.4509 43.0573 94.6198 42.9872 94.796 42.9872V42.9872Z" fill="#FDA57D"/>
<path opacity="0.1" d="M94.1453 46.0509C96.5216 46.9407 99.1373 46.948 101.519 46.0714V45.1637H94.1453V46.0509Z" fill="black"/>
<path d="M97.8457 46.5457C103.682 46.5457 108.414 41.8039 108.414 35.9547C108.414 30.1054 103.682 25.3636 97.8457 25.3636C92.0089 25.3636 87.2773 30.1054 87.2773 35.9547C87.2773 41.8039 92.0089 46.5457 97.8457 46.5457Z" fill="#FDA57D"/>
<path opacity="0.1" d="M85.6646 36.647C85.6646 36.647 92.2457 35.8475 97.2315 29.4521C97.2315 29.4521 103.813 36.7136 108.399 35.9141C108.399 35.9141 111.059 33.1161 108.399 30.3181C105.74 27.5201 103.68 23.9893 100.156 24.4556C96.6332 24.922 92.3122 25.1218 90.4509 26.7873C88.5895 28.4528 85.6646 36.647 85.6646 36.647Z" fill="black"/>
<path d="M85.6646 36.5137C85.6646 36.5137 92.2457 35.7143 97.2315 29.3188C97.2315 29.3188 103.813 36.5803 108.399 35.7809C108.399 35.7809 111.059 32.9829 108.399 30.1849C105.74 27.3869 103.68 23.8561 100.156 24.3224C96.6332 24.7887 92.3122 24.9886 90.4509 26.6541C88.5895 28.3196 85.6646 36.5137 85.6646 36.5137Z" fill="#333333"/>
<path d="M87.2731 37.7919C87.8161 37.7919 88.2562 36.9648 88.2562 35.9446C88.2562 34.9244 87.8161 34.0973 87.2731 34.0973C86.7302 34.0973 86.29 34.9244 86.29 35.9446C86.29 36.9648 86.7302 37.7919 87.2731 37.7919Z" fill="#FDA57D"/>
<path d="M108.413 37.7919C108.956 37.7919 109.396 36.9648 109.396 35.9446C109.396 34.9244 108.956 34.0973 108.413 34.0973C107.87 34.0973 107.43 34.9244 107.43 35.9446C107.43 36.9648 107.87 37.7919 108.413 37.7919Z" fill="#FDA57D"/>
<g opacity="0.5">
<path opacity="0.5" d="M201.167 60.462C214.617 60.462 225.521 49.5351 225.521 36.0561C225.521 22.5771 214.617 11.6502 201.167 11.6502C187.717 11.6502 176.814 22.5771 176.814 36.0561C176.814 49.5351 187.717 60.462 201.167 60.462Z" fill="url(#paint5_linear)"/>
</g>
<path d="M201.215 59.7916C214.381 59.7916 225.055 49.095 225.055 35.9002C225.055 22.7053 214.381 12.0087 201.215 12.0087C188.048 12.0087 177.375 22.7053 177.375 35.9002C177.375 49.095 188.048 59.7916 201.215 59.7916Z" fill="#F5F5F5"/>
<path d="M201.234 59.8859C205.892 59.8934 210.45 58.5266 214.338 55.9559C213.46 51.1448 210.117 50.8705 210.117 50.8705H191.684C191.684 50.8705 188.529 51.13 187.543 55.5559C191.551 58.3811 196.334 59.8937 201.234 59.8859Z" fill="url(#paint6_linear)"/>
<path d="M200.984 46.9286C207.339 46.9286 212.491 41.7656 212.491 35.3967C212.491 29.0278 207.339 23.8648 200.984 23.8648C194.629 23.8648 189.477 29.0278 189.477 35.3967C189.477 41.7656 194.629 46.9286 200.984 46.9286Z" fill="#72351C"/>
<path opacity="0.1" d="M197.27 45.0017H204.643V51.119C204.643 52.0442 204.277 52.9315 203.624 53.5858C202.971 54.24 202.085 54.6075 201.162 54.6075H200.751C199.828 54.6075 198.942 54.24 198.29 53.5858C197.637 52.9315 197.27 52.0442 197.27 51.119V45.0017Z" fill="black"/>
<path d="M197.934 44.7281H203.979C204.155 44.7281 204.324 44.7982 204.449 44.923C204.573 45.0478 204.643 45.2171 204.643 45.3936V50.8454C204.643 51.7706 204.277 52.6579 203.624 53.3121C202.971 53.9663 202.085 54.3339 201.162 54.3339H200.751C199.828 54.3339 198.942 53.9663 198.29 53.3121C197.637 52.6579 197.27 51.7706 197.27 50.8453V45.3936C197.27 45.2171 197.34 45.0478 197.465 44.923C197.589 44.7982 197.758 44.7281 197.934 44.7281Z" fill="#FDA57D"/>
<path opacity="0.1" d="M197.284 47.7918C199.66 48.6816 202.276 48.6888 204.657 47.8122V46.9045H197.284V47.7918Z" fill="black"/>
<path d="M200.984 48.2865C206.821 48.2865 211.552 43.5448 211.552 37.6955C211.552 31.8462 206.821 27.1045 200.984 27.1045C195.147 27.1045 190.416 31.8462 190.416 37.6955C190.416 43.5448 195.147 48.2865 200.984 48.2865Z" fill="#FDA57D"/>
<path opacity="0.1" d="M193.456 28.0618C193.456 28.0618 197.91 37.122 210.474 31.8591L207.549 27.2624L202.364 25.397L193.456 28.0618Z" fill="black"/>
<path d="M193.456 27.9286C193.456 27.9286 197.91 36.9888 210.474 31.7259L207.549 27.1292L202.364 25.2638L193.456 27.9286Z" fill="#72351C"/>
<path d="M193.416 27.3165C193.717 26.3848 194.236 25.5389 194.93 24.8498C197.009 22.7906 200.416 22.3558 202.164 20.0078C202.259 20.1739 202.319 20.3581 202.339 20.5487C202.358 20.7392 202.338 20.9318 202.279 21.1139C202.22 21.2961 202.123 21.4639 201.996 21.6064C201.868 21.749 201.712 21.8631 201.538 21.9415C203.21 21.9306 205.153 21.7837 206.1 20.4018C206.334 20.9478 206.408 21.5492 206.315 22.136C206.221 22.7228 205.964 23.2709 205.572 23.7167C207.056 23.7843 208.64 24.7938 208.736 26.2798C208.8 27.2698 208.18 28.2072 207.368 28.7749C206.525 29.2996 205.587 29.6536 204.608 29.8169C201.786 30.4404 191.575 33.0538 193.416 27.3165Z" fill="#72351C"/>
<path d="M211.552 37.7882H211.272L205.821 42.6514C200.569 40.1865 196.713 42.6514 196.713 42.6514L190.996 37.9881L190.42 38.0607C190.498 40.8403 191.664 43.4777 193.666 45.4033C195.668 47.3288 198.345 48.3881 201.12 48.3523C203.894 48.3165 206.544 47.1886 208.495 45.2121C210.447 43.2355 211.545 40.569 211.552 37.7882V37.7882ZM200.968 44.5167C198.912 44.5167 197.245 44.0992 197.245 43.5841C197.245 43.069 198.912 42.6514 200.968 42.6514C203.024 42.6514 204.691 43.069 204.691 43.5841C204.691 44.0992 203.024 44.5167 200.968 44.5167Z" fill="#72351C"/>
<path d="M190.411 39.5327C190.954 39.5327 191.394 38.7056 191.394 37.6854C191.394 36.6652 190.954 35.8381 190.411 35.8381C189.868 35.8381 189.428 36.6652 189.428 37.6854C189.428 38.7056 189.868 39.5327 190.411 39.5327Z" fill="#FDA57D"/>
<path d="M211.551 39.5327C212.094 39.5327 212.534 38.7056 212.534 37.6854C212.534 36.6652 212.094 35.8381 211.551 35.8381C211.008 35.8381 210.568 36.6652 210.568 37.6854C210.568 38.7056 211.008 39.5327 211.551 39.5327Z" fill="#FDA57D"/>
<g opacity="0.5">
<path opacity="0.5" d="M149.601 100.503C163.051 100.503 173.955 89.5761 173.955 76.0971C173.955 62.6181 163.051 51.6912 149.601 51.6912C136.151 51.6912 125.248 62.6181 125.248 76.0971C125.248 89.5761 136.151 100.503 149.601 100.503Z" fill="url(#paint7_linear)"/>
</g>
<path d="M149.601 99.8553C162.768 99.8553 173.441 89.1587 173.441 75.9639C173.441 62.769 162.768 52.0724 149.601 52.0724C136.435 52.0724 125.761 62.769 125.761 75.9639C125.761 89.1587 136.435 99.8553 149.601 99.8553Z" fill="#F5F5F5"/>
<path d="M140.297 76.1766C140.297 76.1766 137.593 89.5211 136.119 88.7822C136.119 88.7822 150.346 101.097 162.908 88.7822C162.908 88.7822 160.696 79.3785 157.501 76.1766H140.297Z" fill="#333333"/>
<path d="M149.668 99.9269C154.326 99.9344 158.883 98.5676 162.772 95.9969C161.894 91.1858 158.551 90.9115 158.551 90.9115H140.117C140.117 90.9115 136.963 91.1711 135.977 95.5969C139.985 98.4221 144.767 99.9347 149.668 99.9269Z" fill="url(#paint8_linear)"/>
<path d="M149.418 86.0287C155.254 86.0287 159.986 81.287 159.986 75.4377C159.986 69.5884 155.254 64.8466 149.418 64.8466C143.581 64.8466 138.849 69.5884 138.849 75.4377C138.849 81.287 143.581 86.0287 149.418 86.0287Z" fill="#333333"/>
<path opacity="0.1" d="M145.704 85.0427H153.077V91.16C153.077 92.0853 152.71 92.9726 152.058 93.6268C151.405 94.281 150.519 94.6486 149.596 94.6486H149.185C148.262 94.6486 147.376 94.281 146.723 93.6268C146.071 92.9726 145.704 92.0853 145.704 91.16V85.0427Z" fill="black"/>
<path d="M146.368 84.7691H152.413C152.589 84.7691 152.758 84.8392 152.883 84.964C153.007 85.0888 153.077 85.2581 153.077 85.4346V90.8864C153.077 91.8116 152.71 92.6989 152.058 93.3531C151.405 94.0074 150.519 94.3749 149.596 94.3749H149.185C148.262 94.3749 147.376 94.0074 146.723 93.3531C146.071 92.6989 145.704 91.8116 145.704 90.8864V85.4346C145.704 85.2581 145.774 85.0888 145.898 84.964C146.023 84.8392 146.192 84.7691 146.368 84.7691H146.368Z" fill="#BE7C5E"/>
<path opacity="0.1" d="M145.718 87.8328C148.094 88.7226 150.71 88.7298 153.091 87.8532V86.9455H145.718V87.8328Z" fill="black"/>
<path d="M149.418 88.3275C155.254 88.3275 159.986 83.5858 159.986 77.7365C159.986 71.8872 155.254 67.1455 149.418 67.1455C143.581 67.1455 138.849 71.8872 138.849 77.7365C138.849 83.5858 143.581 88.3275 149.418 88.3275Z" fill="#BE7C5E"/>
<path d="M139.314 73.7136H159.467C159.467 73.7136 157.747 65.5582 150.128 66.0782C142.509 66.5981 139.314 73.7136 139.314 73.7136Z" fill="#333333"/>
<path d="M139.068 79.1322C139.611 79.1322 140.051 78.3052 140.051 77.285C140.051 76.2647 139.611 75.4377 139.068 75.4377C138.525 75.4377 138.085 76.2647 138.085 77.285C138.085 78.3052 138.525 79.1322 139.068 79.1322Z" fill="#BE7C5E"/>
<path d="M159.713 79.1322C160.256 79.1322 160.696 78.3052 160.696 77.285C160.696 76.2647 160.256 75.4377 159.713 75.4377C159.17 75.4377 158.73 76.2647 158.73 77.285C158.73 78.3052 159.17 79.1322 159.713 79.1322Z" fill="#BE7C5E"/>
<path opacity="0.1" d="M139.314 73.9872H159.467C159.467 73.9872 157.747 65.8318 150.128 66.3518C142.509 66.8718 139.314 73.9872 139.314 73.9872Z" fill="black"/>
<path d="M149.601 53.8521C153.991 53.8521 158.283 55.1568 161.933 57.6011C165.584 60.0454 168.429 63.5196 170.109 67.5844C171.789 71.6491 172.228 76.1218 171.372 80.4369C170.516 84.752 168.401 88.7157 165.297 91.8267C162.193 94.9378 158.238 97.0564 153.932 97.9147C149.626 98.773 145.163 98.3325 141.107 96.6488C137.051 94.9652 133.584 92.114 131.145 88.4558C128.706 84.7976 127.404 80.4968 127.404 76.0971C127.404 73.1759 127.978 70.2832 129.094 67.5843C130.209 64.8854 131.844 62.4332 133.905 60.3675C135.967 58.3019 138.414 56.6633 141.107 55.5454C143.8 54.4275 146.686 53.8521 149.601 53.8521ZM149.601 48.3586C144.127 48.3586 138.775 49.9855 134.224 53.0334C129.672 56.0814 126.124 60.4135 124.029 65.4821C121.934 70.5506 121.386 76.1279 122.454 81.5087C123.522 86.8894 126.158 91.8319 130.029 95.7112C133.9 99.5905 138.832 102.232 144.201 103.303C149.57 104.373 155.136 103.824 160.194 101.724C165.251 99.6247 169.574 96.0694 172.615 91.5078C175.657 86.9462 177.28 81.5833 177.28 76.0971C177.272 68.743 174.353 61.6924 169.164 56.4922C163.975 51.2921 156.94 48.367 149.601 48.3586Z" fill="#CCCCCC"/>
<path d="M151.992 41.8741H145.503V48.7187H151.992V41.8741Z" fill="#CCCCCC"/>
<path d="M163.563 44.6471L160.045 50.5141L165.607 53.863L169.125 47.9961L163.563 44.6471Z" fill="#CCCCCC"/>
<path d="M177.384 55.8566L171.41 59.1749L174.556 64.862L180.529 61.5437L177.384 55.8566Z" fill="#CCCCCC"/>
<path d="M174.943 87.0087L171.505 92.5231L177.297 96.1502L180.735 90.6358L174.943 87.0087Z" fill="#CCCCCC"/>
<path d="M121.819 55.8566L118.673 61.5437L124.646 64.862L127.792 59.1749L121.819 55.8566Z" fill="#CCCCCC"/>
<path d="M124.259 87.0087L118.467 90.6358L121.905 96.1501L127.698 92.523L124.259 87.0087Z" fill="#CCCCCC"/>
<path d="M135.639 44.6471L130.078 47.996L133.595 53.863L139.157 50.514L135.639 44.6471Z" fill="#CCCCCC"/>
<path d="M151.992 103.476H145.503V110.32H151.992V103.476Z" fill="#CCCCCC"/>
<path d="M165.607 98.3312L160.045 101.68L163.563 107.547L169.125 104.198L165.607 98.3312Z" fill="#CCCCCC"/>
<path d="M133.595 98.3312L130.078 104.198L135.639 107.547L139.157 101.68L133.595 98.3312Z" fill="#CCCCCC"/>
<path d="M122.623 73.3593H114.768V79.1772H122.623V73.3593Z" fill="#CCCCCC"/>
<path d="M176.579 79.1772H184.434V73.3593H176.579V79.1772Z" fill="#CCCCCC"/>
<path d="M201.167 13.8111C205.557 13.8111 209.849 15.1157 213.499 17.56C217.15 20.0044 219.995 23.4786 221.675 27.5433C223.355 31.608 223.794 36.0808 222.938 40.3959C222.081 44.711 219.967 48.6747 216.863 51.7857C213.759 54.8967 209.803 57.0154 205.498 57.8737C201.192 58.732 196.729 58.2915 192.673 56.6078C188.617 54.9242 185.15 52.0729 182.711 48.4148C180.272 44.7566 178.97 40.4558 178.97 36.0561C178.97 30.1564 181.308 24.4983 185.471 20.3265C189.634 16.1548 195.28 13.8111 201.167 13.8111ZM201.167 8.3176C195.693 8.3176 190.341 9.94443 185.789 12.9924C181.238 16.0403 177.69 20.3725 175.595 25.441C173.5 30.5096 172.952 36.0869 174.02 41.4676C175.088 46.8484 177.724 51.7909 181.595 55.6702C185.466 59.5495 190.398 62.1913 195.767 63.2616C201.136 64.3319 206.702 63.7826 211.759 61.6831C216.817 59.5837 221.14 56.0284 224.181 51.4668C227.223 46.9052 228.846 41.5423 228.846 36.0561C228.838 28.702 225.919 21.6514 220.73 16.4512C215.541 11.251 208.506 8.32591 201.167 8.3176Z" fill="#CCCCCC"/>
<path d="M203.558 1.83304H197.069V8.67765H203.558V1.83304Z" fill="#CCCCCC"/>
<path d="M215.129 4.60607L211.612 10.4731L217.173 13.822L220.691 7.95505L215.129 4.60607Z" fill="#CCCCCC"/>
<path d="M228.95 15.8155L222.976 19.1339L226.122 24.821L232.096 21.5027L228.95 15.8155Z" fill="#CCCCCC"/>
<path d="M226.509 46.9677L223.071 52.482L228.863 56.1091L232.301 50.5948L226.509 46.9677Z" fill="#CCCCCC"/>
<path d="M173.384 15.8155L170.239 21.5027L176.212 24.821L179.358 19.1339L173.384 15.8155Z" fill="#CCCCCC"/>
<path d="M175.825 46.9677L170.033 50.5948L173.472 56.1091L179.264 52.482L175.825 46.9677Z" fill="#CCCCCC"/>
<path d="M187.205 4.60607L181.644 7.95505L185.161 13.822L190.723 10.4731L187.205 4.60607Z" fill="#CCCCCC"/>
<path d="M203.558 63.4346H197.069V70.2792H203.558V63.4346Z" fill="#CCCCCC"/>
<path d="M217.174 58.2899L211.613 61.6389L215.13 67.5059L220.692 64.1569L217.174 58.2899Z" fill="#CCCCCC"/>
<path d="M185.161 58.2902L181.644 64.1572L187.205 67.5062L190.723 61.6392L185.161 58.2902Z" fill="#CCCCCC"/>
<path d="M174.189 33.3183H166.334V39.1362H174.189V33.3183Z" fill="#CCCCCC"/>
<path d="M228.146 39.1362H236V33.3183H228.146V39.1362Z" fill="#CCCCCC"/>
<path d="M98.0211 12.0997C98.2817 12.0997 98.543 12.1043 98.8052 12.1134C104.621 12.3159 110.124 14.7989 114.131 19.0278C118.138 23.2567 120.328 28.8933 120.228 34.7241C120.129 40.5548 117.749 46.1133 113.601 50.203C109.453 54.2927 103.868 56.5863 98.049 56.5902C97.7884 56.5902 97.527 56.5857 97.2649 56.5766C91.4493 56.374 85.9457 53.891 81.9389 49.6621C77.932 45.4332 75.7425 39.7966 75.8416 33.9659C75.9408 28.1352 78.3206 22.5766 82.4689 18.487C86.6171 14.3973 92.202 12.1036 98.0211 12.0997ZM98.0227 6.60623V12.0997L98.0223 6.60623C90.7656 6.60962 83.8005 9.46877 78.6267 14.568C73.4529 19.6673 70.4842 26.5988 70.36 33.87C70.2358 41.1412 72.9659 48.1705 77.9625 53.4443C82.959 58.718 89.8224 61.8145 97.0747 62.0668C97.3984 62.078 97.7262 62.0837 98.0489 62.0837C105.306 62.0801 112.27 59.2207 117.444 54.1214C122.618 49.022 125.586 42.0905 125.71 34.8194C125.834 27.5483 123.104 20.5191 118.107 15.2455C113.111 9.97183 106.248 6.8755 98.9953 6.62319C98.6716 6.61194 98.3444 6.60623 98.0227 6.60623Z" fill="#CCCCCC"/>
<path d="M95.1244 2.02727e-05L94.8875 6.84052L101.372 7.06611L101.609 0.225616L95.1244 2.02727e-05Z" fill="#CCCCCC"/>
<path d="M113.078 3.3998L109.359 9.14093L114.802 12.6813L118.52 6.94016L113.078 3.3998Z" fill="#CCCCCC"/>
<path d="M126.502 15.0825L120.417 18.1912L123.364 23.9843L129.449 20.8756L126.502 15.0825Z" fill="#CCCCCC"/>
<path d="M122.984 46.1311L119.357 51.5226L125.02 55.3488L128.647 49.9574L122.984 46.1311Z" fill="#CCCCCC"/>
<path d="M70.9698 13.1506L67.6292 18.7249L73.4843 22.2489L76.825 16.6746L70.9698 13.1506Z" fill="#CCCCCC"/>
<path d="M72.3302 44.3689L66.416 47.7924L69.6614 53.423L75.5756 49.9994L72.3302 44.3689Z" fill="#CCCCCC"/>
<path d="M85.1704 2.42839L79.4961 5.58197L82.8085 11.5677L88.4828 8.41414L85.1704 2.42839Z" fill="#CCCCCC"/>
<path d="M92.9916 61.5645L92.7546 68.405L99.2392 68.6306L99.4761 61.7901L92.9916 61.5645Z" fill="#CCCCCC"/>
<path d="M113.262 57.1222L107.587 60.2758L110.9 66.2615L116.574 63.1079L113.262 57.1222Z" fill="#CCCCCC"/>
<path d="M81.269 56.0092L77.5503 61.7503L82.9927 65.2906L86.7114 59.5495L81.269 56.0092Z" fill="#CCCCCC"/>
<path d="M71.1678 30.6707L63.3181 30.3976L63.1167 36.2121L70.9664 36.4852L71.1678 30.6707Z" fill="#CCCCCC"/>
<path d="M124.891 38.3612L132.74 38.6343L132.942 32.8199L125.092 32.5468L124.891 38.3612Z" fill="#CCCCCC"/>
</g>
<defs>
<linearGradient id="paint0_linear" x1="27.8287" y1="25.5587" x2="19.4005" y2="119.186" gradientUnits="userSpaceOnUse">
<stop stop-color="#0FAABF"/>
<stop offset="1" stop-color="#0B68F2"/>
</linearGradient>
<linearGradient id="paint1_linear" x1="46.4628" y1="37.793" x2="44.1453" y2="68.6538" gradientUnits="userSpaceOnUse">
<stop stop-color="#0FAABF"/>
<stop offset="1" stop-color="#0B68F2"/>
</linearGradient>
<linearGradient id="paint2_linear" x1="17.8817" y1="45.4165" x2="8.50295" y2="115.352" gradientUnits="userSpaceOnUse">
<stop stop-color="#0FAABF"/>
<stop offset="1" stop-color="#0B68F2"/>
</linearGradient>
<linearGradient id="paint3_linear" x1="98.0291" y1="58.7212" x2="98.0291" y2="9.90936" gradientUnits="userSpaceOnUse">
<stop stop-color="#808080" stop-opacity="0.25"/>
<stop offset="0.53514" stop-color="#808080" stop-opacity="0.12"/>
<stop offset="1" stop-color="#808080" stop-opacity="0.1"/>
</linearGradient>
<linearGradient id="paint4_linear" x1="99.1877" y1="47.6473" x2="98.9213" y2="59.8252" gradientUnits="userSpaceOnUse">
<stop stop-color="#0FAABF"/>
<stop offset="1" stop-color="#0B68F2"/>
</linearGradient>
<linearGradient id="paint5_linear" x1="30563.5" y1="9144.55" x2="30563.5" y2="1771.43" gradientUnits="userSpaceOnUse">
<stop stop-color="#808080" stop-opacity="0.25"/>
<stop offset="0.53514" stop-color="#808080" stop-opacity="0.12"/>
<stop offset="1" stop-color="#808080" stop-opacity="0.1"/>
</linearGradient>
<linearGradient id="paint6_linear" x1="202.326" y1="49.3881" x2="202.059" y2="61.5661" gradientUnits="userSpaceOnUse">
<stop stop-color="#0FAABF"/>
<stop offset="1" stop-color="#0B68F2"/>
</linearGradient>
<linearGradient id="paint7_linear" x1="22722.8" y1="15232.8" x2="22722.8" y2="7859.74" gradientUnits="userSpaceOnUse">
<stop stop-color="#808080" stop-opacity="0.25"/>
<stop offset="0.53514" stop-color="#808080" stop-opacity="0.12"/>
<stop offset="1" stop-color="#808080" stop-opacity="0.1"/>
</linearGradient>
<linearGradient id="paint8_linear" x1="150.76" y1="89.4291" x2="150.493" y2="101.607" gradientUnits="userSpaceOnUse">
<stop stop-color="#0FAABF"/>
<stop offset="1" stop-color="#0B68F2"/>
</linearGradient>
<clipPath id="clip0">
<rect width="236" height="254" fill="white"/>
</clipPath>
</defs>
</svg>
