<svg width="700" height="485" viewBox="0 0 700 485" fill="none" xmlns="http://www.w3.org/2000/svg">
<g clip-path="url(#clip0)">
<path d="M699.678 485H0V482.975H700L699.678 485Z" fill="#3F3D56"/>
<path d="M610.957 162.858L593.251 202.818L540.312 230.255C534.658 241.147 516.693 241.981 515.386 234.937C513.921 227.035 537.202 214.317 537.202 214.317L581.482 180.173L585.357 150.779L610.957 162.858Z" fill="#A0616A"/>
<path d="M608.868 431.019L612.133 460.799L593.195 462.288L591.236 431.019H608.868Z" fill="#A0616A"/>
<path d="M606.256 456.332C607.949 454.291 609.511 452.114 610.929 449.817C613.643 445.535 616.052 467.499 616.052 467.499C616.052 467.499 618.664 476.433 618.011 480.9C617.358 485.367 602.338 485.367 599.725 484.623C597.113 483.878 584.052 484.623 584.052 484.623H564.461C547.482 475.689 564.461 469.733 564.461 469.733C569.685 468.988 587.318 450.376 587.318 450.376L591.236 442.187C593.848 441.442 596.46 452.61 596.46 452.61L606.256 456.332Z" fill="#2F2E41"/>
<path d="M657.846 431.391L661.112 461.171L642.174 462.66L640.214 431.391H657.846Z" fill="#A0616A"/>
<path d="M655.234 456.704C656.927 454.663 658.489 452.486 659.907 450.189C662.621 445.907 665.03 467.872 665.03 467.872C665.03 467.872 667.642 476.061 666.989 480.528C666.336 484.995 651.316 484.995 648.704 484.25C646.092 483.506 633.031 484.995 633.031 484.995H613.439C596.46 476.061 613.439 470.105 613.439 470.105C618.664 469.361 636.296 450.749 636.296 450.749L640.214 442.559C642.826 441.815 645.439 452.982 645.439 452.982L655.234 456.704Z" fill="#2F2E41"/>
<path d="M636.296 239.315C638.908 243.038 637.602 255.694 637.602 255.694C637.602 255.694 642.173 296.641 640.214 300.363C638.255 304.086 641.52 307.063 643.479 312.275C645.439 317.486 647.398 330.142 647.398 330.142C658.5 340.565 657.846 388.212 657.846 388.212L661.765 430.648C660.459 435.114 642.173 435.859 639.561 435.114C636.949 434.37 629.113 367.366 629.113 367.366L611.48 329.398C611.48 329.398 612.786 430.648 612.786 435.114C612.786 439.581 595.154 437.348 591.236 437.348C587.318 437.348 587.318 362.9 587.318 362.9L583.399 343.543L562.502 254.949V244.527L565.767 239.315C565.767 239.315 633.684 235.593 636.296 239.315Z" fill="#2F2E41"/>
<path d="M607.562 70.3175C618.743 70.3175 627.806 59.9847 627.806 47.2385C627.806 34.4924 618.743 24.1595 607.562 24.1595C596.381 24.1595 587.318 34.4924 587.318 47.2385C587.318 59.9847 596.381 70.3175 607.562 70.3175Z" fill="#A0616A"/>
<path d="M597.44 58.0336C601.543 68.4507 599.114 83.0009 590.909 98.9802L624.215 81.1126L618.99 75.9012L620.296 61.0115L597.44 58.0336Z" fill="#A0616A"/>
<path d="M597.44 81.8571C593.079 84.813 590.47 90.2441 588.972 95.7707C586.199 106.003 584.53 116.581 584.002 127.273L582.42 159.283L562.829 244.154C579.808 260.533 589.603 256.811 612.46 243.41C635.316 230.009 637.929 247.877 637.929 247.877C637.929 247.877 639.888 247.132 637.929 244.899C635.969 242.665 637.929 244.899 639.888 242.665C641.847 240.432 639.888 242.665 639.235 240.432C638.582 238.198 639.235 239.688 639.888 238.943C640.541 238.198 637.276 231.498 637.276 231.498L642.5 175.662L649.03 96.7467C641.194 85.5794 618.99 75.9011 618.99 75.9011L598.746 92.2797C592.216 95.2576 597.44 83.3459 597.44 83.3459V81.8571Z" fill="url(#paint0_linear)"/>
<path d="M659.806 144.021L662.418 188.69L629.113 243.038C629.113 255.694 623.235 258.672 623.235 258.672C621.009 254.621 619.045 250.391 617.358 246.016C614.093 237.826 619.317 231.126 619.317 231.126L642.173 176.034L632.378 148.488L659.806 144.021Z" fill="#A0616A"/>
<path d="M648.704 97.1189C659.805 101.586 661.765 149.977 661.765 149.977C648.704 141.788 633.031 155.189 633.031 155.189C633.031 155.189 629.765 142.532 625.847 126.154C624.664 121.547 624.523 116.673 625.436 111.987C626.35 107.301 628.288 102.955 631.072 99.3523C631.072 99.3523 637.602 92.652 648.704 97.1189Z" fill="url(#paint1_linear)"/>
<path d="M626.174 54.311C623.597 51.9606 620.081 56.233 620.081 56.233L618.019 35.079C618.019 35.079 605.133 36.8418 596.886 34.4914C588.639 32.1409 587.35 43.0117 587.35 43.0117C586.925 38.6217 586.839 34.1977 587.093 29.7905C587.608 24.502 594.309 19.2134 606.164 15.6878C618.019 12.1621 624.204 27.44 624.204 27.44C632.451 32.1409 628.751 56.6615 626.174 54.311Z" fill="#2F2E41"/>
<path d="M32.9061 364.955C35.1319 375.027 54.1108 397.68 73.6942 418.95C43.4949 333.913 60.7036 240.847 60.7036 240.847C55.0962 277.398 131.946 461.336 131.946 461.336L114.443 473.102L108.53 482.588C49.2547 451.552 32.9061 364.955 32.9061 364.955Z" fill="#E6E6E6"/>
<path d="M543.611 176.387H296.042V232.11H543.611V176.387Z" fill="#E6E6E6"/>
<path d="M543.611 88.3386H296.042V144.062H543.611V88.3386Z" fill="#E6E6E6"/>
<path d="M543.611 0H296.042V55.7231H543.611V0Z" fill="#E6E6E6"/>
<path d="M301.32 49.7062H538.334V6.01685H301.32V49.7062Z" fill="white"/>
<path d="M301.32 138.239H538.334V94.5497H301.32V138.239Z" fill="white"/>
<path d="M301.32 226.094H538.334V182.404H301.32V226.094Z" fill="white"/>
<path d="M322.069 44.1443C330.132 44.1443 336.669 36.6923 336.669 27.4998C336.669 18.3072 330.132 10.8552 322.069 10.8552C314.005 10.8552 307.469 18.3072 307.469 27.4998C307.469 36.6923 314.005 44.1443 322.069 44.1443Z" fill="url(#paint2_linear)"/>
<path d="M501.08 20.9866H356.982V24.605H501.08V20.9866Z" fill="url(#paint3_linear)"/>
<path d="M501.08 30.3944H356.982V34.0128H501.08V30.3944Z" fill="url(#paint4_linear)"/>
<path d="M322.069 133.206C330.132 133.206 336.669 125.754 336.669 116.562C336.669 107.369 330.132 99.9174 322.069 99.9174C314.005 99.9174 307.469 107.369 307.469 116.562C307.469 125.754 314.005 133.206 322.069 133.206Z" fill="#CCCCCC"/>
<path d="M501.08 110.049H356.982V113.667H501.08V110.049Z" fill="#CCCCCC"/>
<path d="M501.08 119.457H356.982V123.075H501.08V119.457Z" fill="#CCCCCC"/>
<path d="M322.069 221.255C330.132 221.255 336.669 213.803 336.669 204.611C336.669 195.418 330.132 187.966 322.069 187.966C314.005 187.966 307.469 195.418 307.469 204.611C307.469 213.803 314.005 221.255 322.069 221.255Z" fill="#CCCCCC"/>
<path d="M501.08 198.098H356.982V201.716H501.08V198.098Z" fill="#CCCCCC"/>
<path d="M501.08 207.505H356.982V211.124H501.08V207.505Z" fill="#CCCCCC"/>
<path d="M113.517 160.738C113.517 160.738 110.104 185.199 124.245 182.975C124.245 182.975 180.324 168.521 183.25 171.857C186.176 175.192 204.366 176.328 203.417 162.265C202.465 148.155 184.226 156.291 184.226 156.291C184.226 156.291 155.942 160.738 150.09 157.403C144.239 154.067 127.659 155.179 127.659 155.179L113.517 160.738Z" fill="#A0616A"/>
<path d="M156.312 240.507L148.536 324.616C148.536 324.616 146.098 357.971 138.783 365.198C138.783 365.198 138.783 375.761 136.345 379.096L132.932 423.014C132.932 423.014 137.808 439.136 137.32 441.916C136.833 444.695 139.271 453.59 138.783 454.702C138.296 455.814 115.376 454.702 115.376 454.702L120.253 365.198L135.37 240.671L156.312 240.507Z" fill="#2F2E41"/>
<path d="M113.59 450.155C113.59 450.155 103.363 479.556 108.699 483.104C114.035 486.652 170.06 484.118 170.06 484.118C170.06 484.118 179.397 477.528 168.726 472.966C168.726 472.966 159.833 472.459 154.053 468.404C148.272 464.349 141.603 456.745 141.603 456.745C141.603 456.745 141.158 445.593 137.601 448.128C136.536 448.927 135.631 449.971 134.941 451.194C134.252 452.416 133.795 453.789 133.599 455.224L113.59 450.155Z" fill="#2F2E41"/>
<path d="M97.8213 446.169C97.8213 446.169 86.6054 478.413 92.4572 482.304C98.3089 486.195 159.752 483.416 159.752 483.416C159.752 483.416 169.993 476.189 158.289 471.185C158.289 471.185 148.536 470.63 142.197 466.182C135.858 461.735 128.543 453.396 128.543 453.396C128.543 453.396 128.055 441.165 124.154 443.945C122.987 444.822 121.994 445.967 121.238 447.307C120.482 448.648 119.98 450.154 119.765 451.728L97.8213 446.169Z" fill="#2F2E41"/>
<path d="M143.172 239.365C143.172 239.365 137.808 296.625 135.37 308.855C133.837 316.91 132.859 325.088 132.444 333.316C132.444 333.316 131.956 351.106 127.568 356.109C126.284 357.558 125.275 359.293 124.603 361.206C123.932 363.119 123.613 365.168 123.666 367.228C123.666 367.228 119.278 423.376 121.716 430.047C124.154 436.718 127.464 445.385 125.026 449.832C122.588 454.28 94.8954 451.172 94.8954 447.837C94.8954 444.501 94.8954 441.721 93.4324 440.054C91.9695 438.386 93.4324 427.823 93.4324 427.823C93.4324 427.823 87.5807 378.346 92.9448 363.892C98.3089 349.438 100.747 309.967 100.747 309.967C100.747 309.967 96.846 264.937 91.9695 257.71C87.093 250.483 92.9448 224.911 92.9448 224.911L143.172 239.365Z" fill="#2F2E41"/>
<path d="M129.443 61.547C130.01 63.0192 131.367 63.839 132.602 64.6148C139.762 69.1115 145.755 75.6308 151.659 82.0751C150.186 76.3832 150.5 70.2837 152.547 64.8273C153.252 62.9662 154.176 60.9657 153.672 59.0216C153.175 57.6319 152.311 56.4531 151.199 55.6487C148.79 53.5246 146.272 51.566 143.658 49.7833C141.832 48.538 138.078 45.2228 135.983 45.5835C135.873 48.811 135.816 51.6965 134.576 54.7128C134.282 55.4284 129.66 62.1098 129.443 61.547Z" fill="#A0616A"/>
<path d="M154.388 68.6957C165.43 68.6957 174.381 58.491 174.381 45.9028C174.381 33.3146 165.43 23.1099 154.388 23.1099C143.346 23.1099 134.395 33.3146 134.395 45.9028C134.395 58.491 143.346 68.6957 154.388 68.6957Z" fill="#A0616A"/>
<path d="M155.363 99.8275C155.363 99.8275 158.777 80.3701 149.024 73.699C139.271 67.0279 128.055 59.245 128.055 59.245C128.055 59.245 124.642 58.6891 123.179 67.028C123.179 67.028 95.383 73.1432 92.4572 103.163C89.5313 133.183 94.4078 177.101 94.4078 177.101C94.4078 177.101 90.019 215.46 84.6549 236.029C84.6549 236.029 80.2661 240.477 99.7719 233.805C119.278 227.134 153.413 252.707 153.413 252.707C153.413 252.707 156.826 248.815 156.826 246.036C156.826 243.256 164.141 158.756 165.604 150.973C167.067 143.19 159.752 100.939 155.363 99.8275Z" fill="#E6E6E6"/>
<path d="M149.676 48.2509C150.877 47.492 152.224 47.083 153.597 47.0604C154.972 47.037 156.314 46.581 157.476 45.7428C159.365 44.0899 159.503 40.8954 160.885 38.6848C162.885 35.4843 166.875 35.0991 170.32 35.2592C172.426 35.3572 174.695 35.5006 176.469 34.2017C178.29 32.8682 179.116 30.3557 179.73 27.9895C180.456 25.1914 180.926 21.7696 179.126 19.6944C177.877 18.2534 175.904 17.9683 174.516 16.7028C173.765 16.0179 163.834 13.2675 154.511 10.7945C149.87 9.56522 144.995 10.3172 140.807 12.9082C136.62 15.4992 133.41 19.7497 131.785 24.8559C129.632 31.6039 127.787 37.9445 127.978 39.3141C128.889 45.8687 133.974 51.0787 134.324 57.7031C134.658 55.8739 135.385 54.1678 136.44 52.7378C137.495 51.3078 138.844 50.1987 140.368 49.5099C140.75 49.2969 141.184 49.2369 141.599 49.3396C142.104 49.5237 142.4 50.099 142.719 50.5822C143.554 51.8482 146.178 53.769 147.665 52.8709C148.996 52.0672 148.003 49.5447 149.676 48.2509Z" fill="#3F3D56"/>
<path d="M158.819 168.085C158.4 168.553 158.161 169.19 158.152 169.858C158.144 170.526 158.367 171.171 158.773 171.653L172.832 188.241C173.037 188.482 173.281 188.675 173.551 188.807C173.822 188.94 174.112 189.01 174.407 189.013C174.701 189.016 174.993 188.953 175.265 188.826C175.538 188.7 175.785 188.513 175.994 188.276L218.894 139.58C219.129 139.314 219.308 138.992 219.419 138.637C219.53 138.282 219.57 137.903 219.536 137.528C219.502 137.153 219.395 136.791 219.222 136.469C219.05 136.148 218.817 135.874 218.54 135.668L201.67 123.142C201.248 122.825 200.744 122.684 200.241 122.74C199.739 122.796 199.268 123.048 198.909 123.452L158.819 168.085Z" fill="#3F3D56"/>
<path d="M219.188 136.408C219.103 136.557 219.005 136.695 218.894 136.821L176.095 186.436C175.886 186.673 175.638 186.86 175.366 186.986C175.094 187.113 174.802 187.176 174.507 187.173C174.213 187.17 173.923 187.1 173.652 186.968C173.382 186.835 173.138 186.643 172.933 186.401L158.571 169.123C158.474 169.007 158.386 168.881 158.309 168.746C158.069 169.214 157.984 169.764 158.069 170.297C158.155 170.83 158.404 171.311 158.773 171.653L172.832 188.241C173.037 188.483 173.281 188.675 173.551 188.807C173.822 188.94 174.112 189.01 174.407 189.013C174.701 189.016 174.993 188.953 175.265 188.826C175.538 188.7 175.785 188.513 175.994 188.276L218.894 139.581C219.255 139.171 219.482 138.631 219.535 138.054C219.589 137.476 219.466 136.895 219.188 136.408H219.188Z" fill="url(#paint5_linear)"/>
<path d="M215.216 137.008L213.47 135.739C213.654 136.112 213.722 136.546 213.662 136.969C213.602 137.392 213.419 137.779 213.141 138.068C212.863 138.357 212.508 138.53 212.133 138.559C211.758 138.588 211.386 138.472 211.076 138.229L199.779 129.374C199.522 129.173 199.32 128.894 199.196 128.569C199.071 128.243 199.03 127.884 199.076 127.533C199.121 127.182 199.253 126.852 199.455 126.582C199.657 126.312 199.922 126.112 200.219 126.005L199.319 125.351C199.203 125.266 199.064 125.23 198.926 125.247C198.789 125.265 198.661 125.336 198.563 125.448L160.559 168.026C160.502 168.091 160.457 168.169 160.427 168.254C160.397 168.34 160.383 168.431 160.384 168.523C160.385 168.615 160.403 168.706 160.436 168.79C160.468 168.874 160.515 168.95 160.574 169.013L174.376 184.345C174.491 184.468 174.643 184.535 174.8 184.533C174.957 184.53 175.107 184.458 175.219 184.332L215.318 138.078C215.382 138.005 215.431 137.917 215.462 137.819C215.492 137.722 215.502 137.618 215.493 137.515C215.483 137.412 215.453 137.313 215.405 137.226C215.357 137.138 215.293 137.063 215.216 137.008V137.008Z" fill="white"/>
<path d="M171.353 158.624L183.012 171.156L210.742 139.922L196.669 129.479L171.353 158.624Z" fill="#E6E6E6"/>
<path d="M209.665 147.63C209.742 147.714 209.844 147.76 209.95 147.76C210.056 147.76 210.159 147.714 210.235 147.63L212.66 144.865C212.736 144.779 212.778 144.662 212.778 144.54C212.778 144.418 212.736 144.301 212.66 144.215C212.584 144.131 212.481 144.085 212.375 144.085C212.269 144.085 212.167 144.131 212.09 144.215L209.665 146.98C209.589 147.066 209.547 147.183 209.547 147.305C209.547 147.427 209.589 147.544 209.665 147.63V147.63Z" fill="#3F3D56"/>
<path d="M205.58 152.287C205.655 152.373 205.758 152.422 205.865 152.422C205.972 152.422 206.074 152.373 206.15 152.287L208.575 149.523C208.651 149.436 208.693 149.319 208.693 149.198C208.692 149.076 208.65 148.959 208.574 148.873C208.499 148.787 208.397 148.739 208.29 148.738C208.183 148.738 208.08 148.786 208.005 148.872L205.58 151.637C205.504 151.723 205.462 151.84 205.462 151.962C205.462 152.084 205.504 152.201 205.58 152.287V152.287Z" fill="#3F3D56"/>
<path d="M171.622 172.486C173.126 172.486 174.346 171.096 174.346 169.381C174.346 167.666 173.126 166.276 171.622 166.276C170.118 166.276 168.899 167.666 168.899 169.381C168.899 171.096 170.118 172.486 171.622 172.486Z" fill="url(#paint6_linear)"/>
<path d="M99.2841 152.085C99.2841 152.085 95.8706 176.545 110.012 174.321C110.012 174.321 166.091 159.867 169.017 163.203C171.943 166.539 190.133 167.674 189.184 153.612C188.232 139.502 169.993 147.637 169.993 147.637C169.993 147.637 141.709 152.084 135.857 148.749C130.006 145.413 113.426 146.525 113.426 146.525L99.2841 152.085Z" fill="#A0616A"/>
<path d="M119.277 74.8109C119.277 74.8109 97.3335 77.5905 97.3335 113.726V159.867L124.154 147.081C124.154 147.081 135.37 117.061 134.395 108.722C133.419 100.383 133.907 75.9227 119.277 74.8109Z" fill="#E6E6E6"/>
</g>
<defs>
<linearGradient id="paint0_linear" x1="610.385" y1="46.4515" x2="578.273" y2="284.169" gradientUnits="userSpaceOnUse">
<stop stop-color="#0FAABF"/>
<stop offset="1" stop-color="#0B68F2"/>
</linearGradient>
<linearGradient id="paint1_linear" x1="645.212" y1="85.783" x2="636.85" y2="165.458" gradientUnits="userSpaceOnUse">
<stop stop-color="#0FAABF"/>
<stop offset="1" stop-color="#0B68F2"/>
</linearGradient>
<linearGradient id="paint2_linear" x1="323.578" y1="5.38179" x2="320.262" y2="50.1238" gradientUnits="userSpaceOnUse">
<stop stop-color="#0FAABF"/>
<stop offset="1" stop-color="#0B68F2"/>
</linearGradient>
<linearGradient id="paint3_linear" x1="436.48" y1="20.3916" x2="436.472" y2="25.2816" gradientUnits="userSpaceOnUse">
<stop stop-color="#0FAABF"/>
<stop offset="1" stop-color="#0B68F2"/>
</linearGradient>
<linearGradient id="paint4_linear" x1="436.48" y1="29.7995" x2="436.472" y2="34.6894" gradientUnits="userSpaceOnUse">
<stop stop-color="#0FAABF"/>
<stop offset="1" stop-color="#0B68F2"/>
</linearGradient>
<linearGradient id="paint5_linear" x1="191.972" y1="127.758" x2="188.031" y2="198.632" gradientUnits="userSpaceOnUse">
<stop stop-color="#0FAABF"/>
<stop offset="1" stop-color="#0B68F2"/>
</linearGradient>
<linearGradient id="paint6_linear" x1="171.904" y1="165.255" x2="171.285" y2="173.601" gradientUnits="userSpaceOnUse">
<stop stop-color="#0FAABF"/>
<stop offset="1" stop-color="#0B68F2"/>
</linearGradient>
<clipPath id="clip0">
<rect width="700" height="485" fill="white"/>
</clipPath>
</defs>
</svg>
