<svg width="18" height="18" viewBox="0 0 18 18" fill="none" xmlns="http://www.w3.org/2000/svg">
<g clip-path="url(#clip0)">
<path d="M0.0145938 5.29205C0.056762 4.33564 0.211424 3.67812 0.432979 3.10836C0.661539 2.50359 1.01317 1.96213 1.47386 1.51201C1.92398 1.05489 2.469 0.699691 3.06677 0.474702C3.63982 0.253147 4.29391 0.0984842 5.25032 0.0563159C6.21387 0.0105764 6.51976 0 8.96359 0C11.4074 0 11.7133 0.0105764 12.6733 0.0527447C13.6297 0.0949129 14.2872 0.249713 14.8568 0.471131C15.4618 0.699691 16.0032 1.05132 16.4533 1.51201C16.9104 1.96213 17.2655 2.50716 17.4906 3.10493C17.7122 3.67812 17.8668 4.33207 17.909 5.28848C17.9548 6.25203 17.9653 6.55792 17.9653 9.00176C17.9653 11.4456 17.9548 11.7515 17.9126 12.7115C17.8704 13.6679 17.7156 14.3254 17.4941 14.8952C17.2655 15.4999 16.9104 16.0414 16.4533 16.4915C16.0032 16.9486 15.4582 17.3038 14.8604 17.5288C14.2872 17.7504 13.6333 17.905 12.6767 17.9472C11.7169 17.9895 11.4109 17.9999 8.96702 17.9999C6.52319 17.9999 6.2173 17.9895 5.25732 17.9472C4.30091 17.905 3.64339 17.7504 3.07378 17.5288C1.86409 17.0611 0.90768 16.1047 0.439984 14.8952C0.218567 14.322 0.0637671 13.6679 0.0215989 12.7115C-0.0205693 11.7515 -0.0311456 11.4456 -0.0311456 9.00176C-0.0311456 6.55792 -0.0275744 6.25203 0.0145938 5.29205ZM1.63553 12.6411C1.67426 13.5202 1.82192 13.9949 1.94499 14.3114C2.24745 15.0956 2.86981 15.7179 3.65397 16.0204C3.97044 16.1434 4.44857 16.2911 5.32421 16.3297C6.27362 16.372 6.55836 16.3824 8.96002 16.3824C11.3617 16.3824 11.65 16.372 12.596 16.3297C13.475 16.2911 13.9497 16.1434 14.2662 16.0204C14.6564 15.8761 15.0116 15.6476 15.2999 15.3487C15.5988 15.0568 15.8274 14.7052 15.9716 14.315C16.0947 13.9985 16.2423 13.5202 16.2809 12.6447C16.3232 11.6953 16.3337 11.4104 16.3337 9.00876C16.3337 6.60709 16.3232 6.31878 16.2809 5.37295C16.2423 4.49387 16.0947 4.01917 15.9716 3.7027C15.8274 3.31234 15.5988 2.95727 15.2964 2.66883C15.0046 2.36994 14.653 2.14138 14.2626 1.99729C13.9462 1.87422 13.4679 1.72656 12.5924 1.68783C11.643 1.64566 11.3581 1.63508 8.95659 1.63508C6.55135 1.63508 6.26661 1.64566 5.32064 1.68783C4.44157 1.72656 3.96687 1.87422 3.6504 1.99729C3.26017 2.14138 2.90497 2.36994 2.61666 2.66883C2.31777 2.96071 2.08921 3.31234 1.94499 3.7027C1.82192 4.01917 1.67426 4.49731 1.63553 5.37295C1.59336 6.32236 1.58278 6.60709 1.58278 9.00876C1.58278 11.4104 1.59336 11.6917 1.63553 12.6411Z" fill="black"/>
<path d="M8.96785 4.37778C11.5206 4.37778 13.5918 6.44883 13.5918 9.00173C13.5918 11.5546 11.5206 13.6257 8.96785 13.6257C6.41495 13.6257 4.3439 11.5546 4.3439 9.00173C4.3439 6.44883 6.41495 4.37778 8.96785 4.37778ZM8.96785 12.0012C10.6239 12.0012 11.9673 10.658 11.9673 9.00173C11.9673 7.34549 10.6239 6.00229 8.96785 6.00229C7.31161 6.00229 5.96841 7.34549 5.96841 9.00173C5.96841 10.658 7.31161 12.0012 8.96785 12.0012V12.0012Z" fill="black"/>
<path d="M3.08112 4.19496C3.08112 4.79108 3.56448 5.27444 4.16075 5.27444C4.75688 5.27444 5.24023 4.79108 5.24023 4.19496C5.24023 3.5987 4.75688 3.11548 4.16075 3.11548C3.56448 3.11548 3.08112 3.5987 3.08112 4.19496V4.19496Z" fill="black"/>
</g>
<defs>
<clipPath id="clip0">
<rect width="18" height="18" fill="white" transform="matrix(-1 0 0 1 18 0)"/>
</clipPath>
</defs>
</svg>
