<svg width="19" height="18" viewBox="0 0 19 18" fill="none" xmlns="http://www.w3.org/2000/svg">
<path d="M9.8003 4.37793C7.24796 4.37793 5.18164 6.44643 5.18164 8.99643C5.18164 11.5487 7.25021 13.6149 9.8003 13.6149C12.3526 13.6149 14.419 11.5464 14.419 8.99643C14.419 6.44418 12.3504 4.37793 9.8003 4.37793V4.37793ZM9.8003 11.9942C8.14349 11.9942 6.80245 10.6524 6.80245 8.99643C6.80245 7.34043 8.14424 5.99868 9.8003 5.99868C11.4564 5.99868 12.7981 7.34043 12.7981 8.99643C12.7989 10.6524 11.4571 11.9942 9.8003 11.9942V11.9942Z" fill="white"/>
<path d="M13.5085 0.05654C11.8525 -0.02071 7.75079 -0.01696 6.09329 0.05654C4.63678 0.12479 3.35203 0.47654 2.31628 1.51229C0.585284 3.24329 0.806534 5.57579 0.806534 8.99654C0.806534 12.4975 0.611534 14.776 2.31628 16.4808C4.05403 18.2178 6.42028 17.9905 9.80054 17.9905C13.2685 17.9905 14.4655 17.9928 15.6918 17.518C17.359 16.8708 18.6175 15.3805 18.7405 12.7038C18.8185 11.047 18.814 6.94604 18.7405 5.28854C18.592 2.12879 16.8963 0.21254 13.5085 0.05654V0.05654ZM16.1298 15.3355C14.995 16.4703 13.4208 16.369 9.77879 16.369C6.02879 16.369 4.52503 16.4245 3.42778 15.3243C2.16403 14.0665 2.39278 12.0468 2.39278 8.98454C2.39278 4.84079 1.96753 1.85654 6.12629 1.64354C7.08179 1.60979 7.36304 1.59854 9.76829 1.59854L9.80204 1.62104C13.7988 1.62104 16.9345 1.20254 17.1228 5.36054C17.1655 6.30929 17.1753 6.59429 17.1753 8.99579C17.1745 12.7023 17.245 14.215 16.1298 15.3355V15.3355Z" fill="white"/>
<path d="M14.6022 5.27495C15.1983 5.27495 15.6815 4.79175 15.6815 4.1957C15.6815 3.59965 15.1983 3.11646 14.6022 3.11646C14.0062 3.11646 13.5229 3.59965 13.5229 4.1957C13.5229 4.79175 14.0062 5.27495 14.6022 5.27495Z" fill="white"/>
</svg>
