<svg width="68" height="66" viewBox="0 0 68 66" fill="none" xmlns="http://www.w3.org/2000/svg">
<path d="M17.651 44.8656H22.1247L33.1492 40.1023C33.1492 40.1023 40.9782 36.574 40.3391 43.2779C39.7 49.9818 38.5816 58.9791 38.5816 58.9791C38.5816 58.9791 35.0665 57.2149 33.1492 57.7442C31.2319 58.2735 32.5101 46.9827 32.5101 46.9827C32.5101 46.9827 16.8521 55.2743 15.4141 54.2158C13.9762 53.1573 13.6566 45.7477 13.6566 45.7477L17.651 44.8656Z" fill="#2F2E41"/>
<path opacity="0.1" d="M17.651 44.8656H22.1247L33.1492 40.1023C33.1492 40.1023 40.9782 36.574 40.3391 43.2779C39.7 49.9818 38.5816 58.9791 38.5816 58.9791C38.5816 58.9791 35.0665 57.2149 33.1492 57.7442C31.2319 58.2735 32.5101 46.9827 32.5101 46.9827C32.5101 46.9827 16.8521 55.2743 15.4141 54.2158C13.9762 53.1573 13.6566 45.7477 13.6566 45.7477L17.651 44.8656Z" fill="black"/>
<path d="M24.7695 29.526L30.1498 38.1008L42.6931 49.725C42.6931 49.725 54.2838 52.7192 52.6961 54.8327C51.1083 56.9462 41.4229 52.7192 41.4229 52.7192C41.4229 52.7192 26.9743 41.0949 26.4979 40.2143C26.0216 39.3337 20.782 31.0558 20.782 31.0558L24.7695 29.526Z" fill="#A0616A"/>
<path opacity="0.1" d="M24.7695 29.526L30.1498 38.1008L42.6931 49.725C42.6931 49.725 54.2838 52.7192 52.6961 54.8327C51.1083 56.9462 41.4229 52.7192 41.4229 52.7192C41.4229 52.7192 26.9743 41.0949 26.4979 40.2143C26.0216 39.3337 20.782 31.0558 20.782 31.0558L24.7695 29.526Z" fill="black"/>
<path d="M21.3757 22.4165L24.9383 30.0142C24.9383 30.0142 24.1286 33.7247 22.8331 34.0781C21.5376 34.4315 16.0317 29.4842 16.0317 29.4842L21.3757 22.4165Z" fill="#D0CDE1"/>
<path opacity="0.1" d="M21.3757 22.4165L24.9383 30.0142C24.9383 30.0142 24.1286 33.7247 22.8331 34.0781C21.5376 34.4315 16.0317 29.4842 16.0317 29.4842L21.3757 22.4165Z" fill="black"/>
<path d="M64.2614 40.9264L65.3069 45.7135C65.3186 45.7669 65.3168 45.8228 65.3017 45.8751L60.5589 62.3259C60.5401 62.3911 60.5018 62.4471 60.4503 62.4847C60.3988 62.5222 60.3372 62.5391 60.2759 62.5324C60.2146 62.5256 60.1572 62.4958 60.1133 62.4478C60.0694 62.3998 60.0416 62.3365 60.0347 62.2686L59.3786 55.86C59.3742 55.8174 59.3781 55.7743 59.3901 55.7336L63.7435 40.9042C63.7616 40.8424 63.7975 40.7888 63.8456 40.7516C63.8937 40.7144 63.9514 40.6956 64.01 40.6981C64.0686 40.7006 64.1248 40.7243 64.1702 40.7655C64.2155 40.8067 64.2476 40.8632 64.2614 40.9264Z" fill="#2F2E41"/>
<path d="M63.8301 41.2056L64.7207 45.3535L60.8612 60.5024L59.9706 55.8135L63.8301 41.2056Z" fill="#F2F2F2"/>
<path d="M42.7775 63.3603C42.9407 63.8778 59.7485 63.1878 59.9117 63.0153C60.0539 62.7992 60.1743 62.5679 60.2707 62.3252C60.4241 61.9801 60.5644 61.6351 60.5644 61.6351L59.9117 56.049L43.267 55.4244C43.267 55.4244 42.8509 60.1583 42.766 62.3252C42.7448 62.8721 42.7448 63.2568 42.7775 63.3603Z" fill="#2F2E41"/>
<path opacity="0.1" d="M57.8726 56.948L58.1892 61.5183H51.064V56.948H57.8726Z" fill="black"/>
<path opacity="0.1" d="M48.6465 58.4803L48.689 58.4713L48.4883 60.5026H44.5326V58.4803H48.6465Z" fill="black"/>
<path opacity="0.1" d="M42.777 63.3925C42.9374 63.8219 59.4574 63.2494 59.6178 63.1063C59.7576 62.9271 59.8759 62.7352 59.9706 62.5338H42.7658C42.745 62.9875 42.745 63.3067 42.777 63.3925Z" fill="black"/>
<path d="M23.7507 19.8776C27.6859 19.8776 30.8759 16.3535 30.8759 12.0065C30.8759 7.65938 27.6859 4.13538 23.7507 4.13538C19.8156 4.13538 16.6255 7.65938 16.6255 12.0065C16.6255 16.3535 19.8156 19.8776 23.7507 19.8776Z" fill="#A0616A"/>
<path d="M23.1569 19.013C23.1569 19.013 20.8165 23.5424 20.3485 25.9814C19.8804 28.4203 13.3273 21.1035 13.3273 21.1035L12.4691 18.5775C12.4691 18.5775 18.6322 15.3546 18.1641 12.7414C17.696 10.1283 23.1569 19.013 23.1569 19.013Z" fill="#A0616A"/>
<path d="M24.801 33.0808L31.277 42.5616L46.7561 55.3782C46.7561 55.3782 57.9706 58.0118 55.4434 59.943C52.9162 61.8743 45.6504 58.1873 45.6504 58.1873C45.6504 58.1873 30.0134 48.8821 26.6964 45.0196C23.3794 41.157 17.2194 34.6609 17.2194 34.6609L24.801 33.0808Z" fill="#A0616A"/>
<path d="M15.8726 47.8886L17.7726 51.2332L29.1116 47.267C31.5996 46.3968 34.3278 46.717 36.5346 48.2627C38.5137 49.6489 39.7803 51.8493 36.9304 55.1058C31.2305 61.6188 27.4306 58.0983 27.4306 58.0983C27.4306 58.0983 8.27285 68.1319 5.10627 63.2031C1.9397 58.2743 1.78137 55.8099 1.78137 55.8099C1.78137 55.8099 13.9727 47.3605 15.8726 47.8886Z" fill="#2F2E41"/>
<path d="M39.5919 59.5358C39.5919 59.5358 44.6006 63.2045 38.6527 64.9516C32.7049 66.6986 28.3222 64.2528 28.3222 64.2528C28.3222 64.2528 23.157 64.2528 23.157 61.2828C23.157 58.3129 24.8787 57.9635 24.8787 57.9635L30.2005 58.837C30.2005 58.837 36.618 56.9153 39.5919 59.5358Z" fill="#D0CDE1"/>
<path d="M29.6102 10.0403C30.0979 10.2773 30.5816 10.5577 31.1119 10.6264C31.6422 10.6952 32.2461 10.4935 32.4971 9.97987C32.6326 9.70245 32.6481 9.37613 32.6544 9.06193C32.6736 8.10915 32.6103 7.07915 32.0562 6.34179C31.7035 5.87253 31.1886 5.57671 30.8235 5.11883C30.562 4.79079 30.3879 4.39317 30.2005 4.00962C29.4905 2.55677 28.4392 1.16048 26.9782 0.741644C26.3681 0.566746 25.7281 0.575282 25.0973 0.584984L21.4181 0.641534C20.8227 0.650686 20.2181 0.66132 19.6482 0.849074C18.4639 1.23918 17.6017 2.32416 16.812 3.36177C16.2212 4.13804 15.6288 4.92235 15.1854 5.80754C14.5497 7.09931 14.2282 8.54694 14.2517 10.0125C14.2468 10.3883 14.2913 10.763 14.384 11.1251C14.4923 11.4572 14.6266 11.7785 14.7853 12.0857C15.4753 13.5622 15.885 15.4064 15.108 16.8307C16.4578 16.23 17.7933 15.4423 18.6837 14.1844C19.082 13.6216 19.3944 12.9628 19.9253 12.5499C20.4561 12.1369 21.3211 12.1011 21.6617 12.7072C21.7787 12.9523 21.839 13.225 21.8373 13.5013C21.8621 13.9563 21.8615 14.4287 22.0385 14.8416C22.2155 15.2545 22.6373 15.5877 23.0399 15.4641C23.7333 15.2513 23.6669 14.0919 24.201 13.5652C24.6065 13.1652 25.2323 13.2417 25.7534 13.0601C26.3605 12.8485 26.816 12.2755 27.0756 11.6413C27.2728 11.1592 27.27 9.89754 27.6433 9.63646C28.1115 9.30905 29.1762 9.82957 29.6102 10.0403Z" fill="#2F2E41"/>
<path d="M11.8074 17.9168C12.1308 17.8219 12.4712 17.8228 12.7941 17.9196C13.8193 18.2225 16.1176 19.0244 16.6104 20.2446C17.2493 21.8265 19.4853 24.2872 19.4853 24.2872C19.4853 24.2872 22.5199 27.6268 21.8811 29.9118C21.2422 32.1967 18.8465 34.8332 18.8465 34.8332C18.8465 34.8332 19.4853 45.7308 16.291 48.543C13.0967 51.3553 11.819 49.4219 11.819 52.0584C11.819 54.6949 1.91659 62.9559 0 57.8587C0 57.8587 0.958295 48.3673 0.638864 45.0277C0.324039 41.7363 0.784925 21.2008 11.8074 17.9168Z" fill="#D0CDE1"/>
<path d="M16.8535 22.3712C16.8535 22.3712 26.462 30.2918 24.7293 33.6361C24.7293 33.6361 18.9012 36.8043 17.6411 36.6283C16.381 36.4523 11.498 30.2918 10.2379 29.7638C8.97773 29.2357 8.34767 19.731 16.8535 22.3712Z" fill="#D0CDE1"/>
<path d="M35.6795 22.0214C34.9087 25.5983 32.2077 27.8336 32.2077 27.8336C32.2077 27.8336 30.7565 24.2696 31.5273 20.6928C32.2981 17.1159 34.9991 14.8806 34.9991 14.8806C34.9991 14.8806 36.4504 18.4446 35.6795 22.0214Z" fill="#3F3D56"/>
<path d="M34.5103 21.2647C32.3514 23.8638 32.1099 27.8315 32.1099 27.8315C32.1099 27.8315 35.3686 27.5852 37.5275 24.9861C39.6864 22.387 39.9279 18.4193 39.9279 18.4193C39.9279 18.4193 36.6692 18.6656 34.5103 21.2647Z" fill="url(#paint0_linear)"/>
<path d="M34.4019 33.476C34.3706 34.0853 34.1987 34.5515 33.8862 34.8744C33.5763 35.1973 33.1375 35.3588 32.5698 35.3588C31.9995 35.3588 31.5464 35.1426 31.2104 34.7103C30.8745 34.2754 30.7065 33.6869 30.7065 32.9447V31.9135C30.7065 31.1739 30.8784 30.5892 31.2222 30.1595C31.5685 29.7299 32.0399 29.515 32.6362 29.515C33.1857 29.515 33.6102 29.6804 33.9097 30.0111C34.2118 30.3392 34.3758 30.8093 34.4019 31.4213H33.6792C33.6479 30.9577 33.5503 30.627 33.3862 30.4291C33.2222 30.2312 32.9722 30.1322 32.6362 30.1322C32.2482 30.1322 31.95 30.2845 31.7417 30.5892C31.5334 30.8913 31.4292 31.3353 31.4292 31.9213V32.9642C31.4292 33.5398 31.5256 33.9812 31.7183 34.2885C31.9136 34.5957 32.1974 34.7494 32.5698 34.7494C32.9422 34.7494 33.2104 34.6569 33.3745 34.472C33.5386 34.2872 33.6401 33.9551 33.6792 33.476H34.4019ZM39.0737 32.9369C39.0737 33.7129 38.9084 34.3106 38.5776 34.7299C38.2469 35.1491 37.7769 35.3588 37.1675 35.3588C36.5815 35.3588 36.118 35.1556 35.7769 34.7494C35.4383 34.3405 35.2625 33.7637 35.2495 33.0189V31.9486C35.2495 31.1882 35.4175 30.5931 35.7534 30.1635C36.0894 29.7312 36.5581 29.515 37.1597 29.515C37.7586 29.515 38.2248 29.722 38.5581 30.1361C38.894 30.5476 39.0659 31.1361 39.0737 31.9017V32.9369ZM38.3589 31.9408C38.3589 31.3392 38.2599 30.8926 38.062 30.601C37.8667 30.3067 37.5659 30.1595 37.1597 30.1595C36.7664 30.1595 36.4683 30.308 36.2651 30.6049C36.0646 30.9017 35.9631 31.3392 35.9604 31.9174V32.9369C35.9604 33.5176 36.0607 33.9603 36.2612 34.265C36.4644 34.5697 36.7664 34.722 37.1675 34.722C37.5685 34.722 37.8654 34.5814 38.0581 34.3002C38.2508 34.0189 38.3511 33.5879 38.3589 33.0072V31.9408ZM40.8979 34.6674H43.1284V35.2806H40.1792V29.5931H40.8979V34.6674ZM47.4253 32.9369C47.4253 33.7129 47.2599 34.3106 46.9292 34.7299C46.5985 35.1491 46.1284 35.3588 45.519 35.3588C44.9331 35.3588 44.4696 35.1556 44.1284 34.7494C43.7899 34.3405 43.6141 33.7637 43.6011 33.0189V31.9486C43.6011 31.1882 43.769 30.5931 44.105 30.1635C44.4409 29.7312 44.9097 29.515 45.5112 29.515C46.1102 29.515 46.5763 29.722 46.9097 30.1361C47.2456 30.5476 47.4175 31.1361 47.4253 31.9017V32.9369ZM46.7104 31.9408C46.7104 31.3392 46.6115 30.8926 46.4136 30.601C46.2183 30.3067 45.9175 30.1595 45.5112 30.1595C45.118 30.1595 44.8198 30.308 44.6167 30.6049C44.4162 30.9017 44.3146 31.3392 44.312 31.9174V32.9369C44.312 33.5176 44.4123 33.9603 44.6128 34.265C44.8159 34.5697 45.118 34.722 45.519 34.722C45.9201 34.722 46.217 34.5814 46.4097 34.3002C46.6024 34.0189 46.7026 33.5879 46.7104 33.0072V31.9408ZM51.9214 29.5931V33.6361C51.9162 34.1752 51.7599 34.597 51.4526 34.9017C51.1453 35.2064 50.717 35.3588 50.1675 35.3588C49.605 35.3588 49.1753 35.2103 48.8784 34.9135C48.5815 34.614 48.4305 34.1882 48.4253 33.6361V29.5931H49.1362V33.6088C49.1362 33.9916 49.217 34.278 49.3784 34.4681C49.5425 34.6556 49.8055 34.7494 50.1675 34.7494C50.5321 34.7494 50.7951 34.6556 50.9565 34.4681C51.1206 34.278 51.2026 33.9916 51.2026 33.6088V29.5931H51.9214ZM54.7417 32.9799H53.7417V35.2806H53.0229V29.5931H54.6167C55.174 29.5931 55.5959 29.739 55.8823 30.0306C56.1688 30.3197 56.312 30.7442 56.312 31.3041C56.312 31.6556 56.2339 31.9629 56.0776 32.226C55.924 32.4864 55.7052 32.683 55.4214 32.8158L56.5229 35.2338V35.2806H55.7534L54.7417 32.9799ZM53.7417 32.3666H54.6089C54.9084 32.3666 55.1466 32.2702 55.3237 32.0775C55.5034 31.8848 55.5933 31.627 55.5933 31.3041C55.5933 30.5749 55.2625 30.2103 54.6011 30.2103H53.7417V32.3666ZM59.855 35.2806H59.1401V29.5931H59.855V35.2806ZM64.3159 30.2103H62.8198V35.2806H62.105V30.2103H60.6128V29.5931H64.3159V30.2103Z" fill="black"/>
<defs>
<linearGradient id="paint0_linear" x1="36.423" y1="16.8717" x2="35.4335" y2="29.5142" gradientUnits="userSpaceOnUse">
<stop stop-color="#0FAABF"/>
<stop offset="1" stop-color="#0B68F2"/>
</linearGradient>
</defs>
</svg>
