<svg width="19" height="18" viewBox="0 0 19 18" fill="none" xmlns="http://www.w3.org/2000/svg">
<path d="M4.41736 7.79C5.85736 10.62 8.17736 12.93 11.0074 14.38L13.2074 12.18C13.4774 11.91 13.8774 11.82 14.2274 11.94C15.3474 12.31 16.5574 12.51 17.7974 12.51C18.3474 12.51 18.7974 12.96 18.7974 13.51V17C18.7974 17.55 18.3474 18 17.7974 18C8.40736 18 0.797363 10.39 0.797363 1C0.797363 0.45 1.24736 0 1.79736 0H5.29736C5.84736 0 6.29736 0.45 6.29736 1C6.29736 2.25 6.49736 3.45 6.86736 4.57C6.97736 4.92 6.89736 5.31 6.61736 5.59L4.41736 7.79Z" fill="white"/>
</svg>
